<?xml version="1.0" encoding="UTF-8"?>
<svg width="20px" height="20px" viewBox="0 0 20 20" version="1.1" xmlns="http://www.w3.org/2000/svg" xmlns:xlink="http://www.w3.org/1999/xlink">
    <title>0A1108DA-9B9C-4D86-A701-DD8F6499BA30</title>
    <g id="Page-1" stroke="none" stroke-width="1" fill="none" fill-rule="evenodd">
        <g id="More" transform="translate(-20.000000, -581.000000)" fill="#1B1B1B" fill-rule="nonzero">
            <g id="tracking" transform="translate(20.000000, 581.000000)">
                <path d="M10.7555089,20 C10.9303952,20 11.0895418,19.9539999 11.2329486,19.8619997 C11.3763554,19.7699995 11.4655474,19.6319993 11.5005247,19.4479989 L13.9691305,8.1243493 L14.501574,10.7590928 C14.5925149,11.2225011 14.8828262,11.4542053 15.3725079,11.4542053 L19.2339979,11.4542053 C19.4508569,11.4542053 19.6327387,11.3826496 19.7796432,11.2395382 C19.9265477,11.0964268 20,10.9260561 20,10.728426 C20,10.5171664 19.9282966,10.3382771 19.7848898,10.1917583 C19.641483,10.0452395 19.4578524,9.9719801 19.2339979,9.9719801 L15.7571011,9.97222544 L14.6274921,5.09597043 C14.5925149,4.91197006 14.5050717,4.7756735 14.3651626,4.68708073 C14.2252536,4.59848796 14.0731025,4.55589528 13.9087093,4.5593027 C13.7443162,4.56271011 13.5921651,4.61211762 13.452256,4.70752521 C13.312347,4.80293281 13.2179084,4.94263679 13.1689402,5.12663716 L10.7441931,15.6958962 L8.18467996,0.557294757 C8.1636936,0.373294391 8.08674362,0.235294118 7.95383001,0.143293935 C7.8209164,0.0512937526 7.67226303,0.00358995421 7.50786988,0 C7.34347674,-0.00322487412 7.19482336,0.0410715101 7.06190976,0.133071693 C6.92899615,0.225071875 6.83805526,0.366479563 6.78908709,0.557294757 L4.7069269,9.97222544 L0.776495278,9.9719801 C0.552640783,9.9719801 0.36726128,10.0452395 0.220356768,10.1917583 C0.073452256,10.3382771 0,10.5171664 0,10.728426 C0,10.9260561 0.073452256,11.0964268 0.220356768,11.2395382 C0.36726128,11.3826496 0.552640783,11.4542053 0.776495278,11.4542053 L5.18363064,11.4542053 C5.65232599,11.4542053 5.93564183,11.2497604 6.03357817,10.8408707 L7.46767961,4.44394946 L10.0209864,19.4479989 C10.0559636,19.6319993 10.1434068,19.7699995 10.2833158,19.8619997 C10.4232249,19.9539999 10.5806226,20 10.7555089,20 Z" id="activity"></path>
            </g>
        </g>
    </g>
</svg>