<?xml version="1.0" encoding="UTF-8"?>
<svg width="16px" height="16px" viewBox="0 0 16 16" version="1.1" xmlns="http://www.w3.org/2000/svg" xmlns:xlink="http://www.w3.org/1999/xlink">
    <title>32C28783-0D04-45D6-95CD-418727D188D3</title>
    <g id="Page-1" stroke="none" stroke-width="1" fill="none" fill-rule="evenodd">
        <g id="job-details" transform="translate(-20.000000, -472.000000)">
            <g id="client" transform="translate(19.000000, 407.000000)">
                <g id="phone" transform="translate(1.000000, 65.000000)">
                    <rect id="Rectangle" x="0" y="0" width="16" height="16"></rect>
                    <path d="M15.1889929,11.4036096 C14.7950866,11.2022619 12.8585802,10.225265 12.498385,10.0915446 C12.1380756,9.95735211 11.8736429,9.88984278 11.6127528,10.2928923 C11.3501485,10.696414 10.5954756,11.6054294 10.3650969,11.8747586 C10.1362039,12.1445599 9.90719651,12.1773703 9.51329014,11.9756685 C9.1188124,11.7743208 7.84990137,11.3468404 6.34684061,9.97422944 C5.17734895,8.90340407 4.38725072,7.5839036 4.15641496,7.18038195 C3.9278647,6.77721436 4.13378848,6.55898929 4.32862758,6.35775957 C4.5063254,6.17612171 4.72299104,5.88661056 4.91977282,5.65198025 C5.11689741,5.41546156 5.18237706,5.24657022 5.31367918,4.97724106 C5.4449813,4.70779387 5.37961593,4.47316355 5.28008229,4.27146174 C5.18237706,4.07011399 4.39456433,2.08472609 4.06602333,1.27614848 C3.73976784,0.470049356 3.41134112,0.5 3.18050537,0.5 C2.95149801,0.5 2.52662308,0.570369159 2.52662308,0.570369159 C2.52662308,0.570369159 1.99920051,0.642705372 1.37724384,1.07491875 C0.755287175,1.50713214 0,2.45496517 0,4.4384647 C0,7.05030847 3.74887557,12.8518853 8.33099966,14.7015346 C12.9131238,16.5511839 15.3839463,14.7343451 15.712373,13.7921651 C16.040914,12.8498671 16.040914,12.0417616 15.9432088,11.8747586 C15.8436751,11.7063394 15.5810709,11.6054294 15.1889929,11.4036096 Z" id="Fill-1" fill="#0052E2"></path>
                </g>
            </g>
        </g>
    </g>
</svg>