<?xml version="1.0" encoding="UTF-8"?>
<svg width="20px" height="20px" viewBox="0 0 20 20" version="1.1" xmlns="http://www.w3.org/2000/svg" xmlns:xlink="http://www.w3.org/1999/xlink">
    <title>67E9A65F-D870-4B2E-94F4-4D62C1C2356D</title>
    <g id="Page-1" stroke="none" stroke-width="1" fill="none" fill-rule="evenodd">
        <g id="More" transform="translate(-20.000000, -500.000000)" fill="#1B1B1B" fill-rule="nonzero">
            <g id="help" transform="translate(20.000000, 500.000000)">
                <path d="M10,0 C15.5228475,0 20,4.4771525 20,10 C20,15.5228475 15.5228475,20 10,20 C4.4771525,20 0,15.5228475 0,10 C0,4.4771525 4.4771525,0 10,0 Z M10,1.5 C5.30557963,1.5 1.5,5.30557963 1.5,10 C1.5,14.6944204 5.30557963,18.5 10,18.5 C14.6944204,18.5 18.5,14.6944204 18.5,10 C18.5,5.30557963 14.6944204,1.5 10,1.5 Z M9.69607843,12.4974039 C9.98366013,12.4974039 10.2303922,12.5944098 10.4362745,12.7884216 C10.6421569,12.9824334 10.745098,13.2208377 10.745098,13.5036345 C10.745098,13.7864313 10.6421569,14.0231914 10.4362745,14.2139148 C10.2303922,14.4046383 9.98366013,14.5 9.69607843,14.5 C9.41503268,14.5 9.17156863,14.4029941 8.96568627,14.2089823 C8.75980392,14.0149706 8.65686275,13.7798546 8.65686275,13.5036345 C8.65686275,13.2208377 8.75816993,12.9824334 8.96078431,12.7884216 C9.16339869,12.5944098 9.40849673,12.4974039 9.69607843,12.4974039 Z M10,5 C10.5424837,5 11.0408497,5.09371755 11.495098,5.28115265 C11.9493464,5.46858775 12.3137255,5.74151956 12.5882353,6.09994808 C12.8627451,6.4583766 13,6.89736933 13,7.41692627 C13,7.96278989 12.8611111,8.39849429 12.5833333,8.72403946 C12.3055556,9.04958463 11.9379085,9.36033229 11.4803922,9.65628245 C11.1732026,9.86015922 10.9379085,10.054171 10.7745098,10.2383178 C10.6437908,10.3856352 10.563268,10.5539979 10.5329412,10.743406 L10.5196078,10.8894081 L10.5196078,10.9979232 C10.5130719,11.1886466 10.4395425,11.349775 10.2990196,11.4813084 C10.1584967,11.6128418 9.96405229,11.6786085 9.71568627,11.6786085 C9.21840959,11.6786085 8.94905138,11.4630856 8.90761166,11.0320396 L8.90196078,10.9091381 L8.90196078,10.8006231 C8.90196078,10.3599862 9.01143791,10.0015576 9.23039216,9.72533749 C9.44934641,9.44911734 9.72222222,9.19591554 10.0490196,8.96573209 C10.4477124,8.68293527 10.746732,8.44453098 10.9460784,8.25051921 C11.1454248,8.05650744 11.245098,7.80823814 11.245098,7.50571132 C11.245098,7.16372447 11.124183,6.88914849 10.8823529,6.68198339 C10.6405229,6.47481828 10.3202614,6.37123572 9.92156863,6.37123572 C9.62745098,6.37123572 9.36437908,6.44029076 9.13235294,6.57840083 C8.94673203,6.68888889 8.7872549,6.84146764 8.65392157,7.03613707 L8.55882353,7.19003115 L8.40196078,7.38733126 C8.31045752,7.50571132 8.20751634,7.59942887 8.09313725,7.6684839 C7.97875817,7.73753894 7.84313725,7.77206646 7.68627451,7.77206646 C7.50980392,7.77206646 7.35130719,7.71287643 7.21078431,7.59449637 C7.07026144,7.4761163 7,7.30841121 7,7.0913811 C7,7.00588439 7.00653595,6.92367601 7.01960784,6.84475597 C7.03267974,6.76583593 7.05228758,6.68691589 7.07843137,6.60799585 C7.21568627,6.17393562 7.53921569,5.79742125 8.04901961,5.47845275 C8.55882353,5.15948425 9.20915033,5 10,5 Z" id="question"></path>
            </g>
        </g>
    </g>
</svg>