<?xml version="1.0" encoding="UTF-8"?>
<svg width="118px" height="118px" viewBox="0 0 118 118" version="1.1" xmlns="http://www.w3.org/2000/svg" xmlns:xlink="http://www.w3.org/1999/xlink">
    <title>920CD409-F647-4C6D-B28D-1FEFA64B6C92</title>
    <g id="Page-1" stroke="none" stroke-width="1" fill="none" fill-rule="evenodd">
        <g id="timer-disabled" transform="translate(-130.000000, -422.000000)" fill="#E4E4E4">
            <g id="Group-2" transform="translate(32.000000, 168.000000)">
                <g id="Group-3" transform="translate(98.000000, 254.000000)">
                    <path d="M59,0 C91.5848002,-5.9857307e-15 118,26.4151998 118,59 C118,91.5848002 91.5848002,118 59,118 C26.4151998,118 3.99048713e-15,91.5848002 0,59 C-3.99048713e-15,26.4151998 26.4151998,5.9857307e-15 59,0 Z M47.5,38.7811529 C45.0147186,38.7811529 43,40.7958716 43,43.2811529 L43,43.2811529 L43,76.7188471 C43,77.41745 43.1626529,78.1064588 43.4750776,78.7313082 C44.5865293,80.9542115 47.2895579,81.855221 49.5124612,80.7437694 L49.5124612,80.7437694 L82.9501553,64.0249224 C83.8210286,63.5894857 84.5271798,62.8833345 84.9626165,62.0124612 C86.0740681,59.7895579 85.1730585,57.0865293 82.9501553,55.9750776 L82.9501553,55.9750776 L49.5124612,39.2562306 C48.8876117,38.9438059 48.1986029,38.7811529 47.5,38.7811529 Z" id="disabled-play-icn"></path>
                </g>
            </g>
        </g>
    </g>
</svg>