<?xml version="1.0" encoding="UTF-8"?>
<svg width="20px" height="32px" viewBox="0 0 20 32" version="1.1" xmlns="http://www.w3.org/2000/svg" xmlns:xlink="http://www.w3.org/1999/xlink">
    <title>44DAB31F-E6B8-46DF-8914-286665339FE5</title>
    <g id="Page-1" stroke="none" stroke-width="1" fill="none" fill-rule="evenodd">
        <g id="screenshot-icons" transform="translate(-184.000000, -117.000000)" fill="#000000" fill-rule="nonzero">
            <g id="Group" transform="translate(60.000000, 117.000000)">
                <path d="M141,-1.0658141e-14 C142.656854,-1.0658141e-14 144,1.34314575 144,3 L144,29 C144,30.6568542 142.656854,32 141,32 L127,32 C125.343146,32 124,30.6568542 124,29 L124,3 C124,1.34314575 125.343146,-1.0658141e-14 127,-1.0658141e-14 L141,-1.0658141e-14 Z M140.75,1.5 L127.25,1.5 C126.283502,1.5 125.5,2.28350169 125.5,3.25 L125.5,28.75 C125.5,29.7164983 126.283502,30.5 127.25,30.5 L140.75,30.5 C141.716498,30.5 142.5,29.7164983 142.5,28.75 L142.5,3.25 C142.5,2.28350169 141.716498,1.5 140.75,1.5 Z M134,25 C135.104569,25 136,25.8954305 136,27 C136,28.1045695 135.104569,29 134,29 C132.895431,29 132,28.1045695 132,27 C132,25.8954305 132.895431,25 134,25 Z" id="mobile-app"></path>
            </g>
        </g>
    </g>
</svg>