<svg width="18" height="20" viewBox="0 0 18 20" fill="none" xmlns="http://www.w3.org/2000/svg">
<path d="M9 7V16" stroke="#DA0606" stroke-width="1.5" stroke-linecap="round"/>
<path d="M12.5 7L12 16" stroke="#DA0606" stroke-width="1.5" stroke-linecap="round"/>
<path d="M5.5 7L6 16" stroke="#DA0606" stroke-width="1.5" stroke-linecap="round"/>
<path d="M0 3.75C0 3.33579 0.335786 3 0.75 3H17.25C17.6642 3 18 3.33579 18 3.75C18 4.16421 17.6642 4.5 17.25 4.5H0.75C0.335787 4.5 0 4.16421 0 3.75Z" fill="#DA0606"/>
<path d="M5 4L5.43477 1.17397C5.4723 0.930055 5.68217 0.75 5.92896 0.75H12.071C12.3178 0.75 12.5277 0.930056 12.5652 1.17397L13 4" stroke="#DA0606" stroke-width="1.5"/>
<path d="M2 4L2.93872 18.3154C2.97319 18.8412 3.40969 19.25 3.93657 19.25H14.0634C14.5903 19.25 15.0268 18.8412 15.0613 18.3154L16 4" stroke="#DA0606" stroke-width="1.5"/>
</svg>
