<?xml version="1.0" encoding="UTF-8"?>
<svg width="20px" height="19px" viewBox="0 0 20 19" version="1.1" xmlns="http://www.w3.org/2000/svg" xmlns:xlink="http://www.w3.org/1999/xlink">
    <title>9207EAE4-CF5F-4ACB-AF32-C50121A1C0F9</title>
    <g id="Page-1" stroke="none" stroke-width="1" fill="none" fill-rule="evenodd">
        <g id="projects-screen-assets" transform="translate(-335.000000, -287.000000)" stroke="#000000" stroke-width="1.5">
            <path d="M344.926583,287.762229 C345.14459,287.795028 345.180261,287.83002 345.201885,287.873568 L345.201885,287.873568 L347.9393,293.386289 L354.058473,294.270024 C354.119887,294.278894 354.172184,294.311273 354.206657,294.357185 C354.239774,294.401291 354.256239,294.457919 354.247636,294.516757 C354.240731,294.563988 354.218129,294.60749 354.183785,294.640763 L354.183785,294.640763 L349.75316,298.933169 L350.799289,304.995303 C350.809394,305.053861 350.794426,305.110856 350.762474,305.155761 C350.729234,305.202476 350.677844,305.23612 350.616756,305.246533 C350.567324,305.254959 350.516449,305.247051 350.472037,305.223845 L350.472037,305.223845 L344.999937,302.364568 L339.527836,305.223845 C339.472068,305.252985 339.409701,305.256797 339.353965,305.239578 C339.299498,305.222751 339.251077,305.18566 339.222367,305.131385 C339.200282,305.089634 339.192558,305.041816 339.200585,304.995303 L339.200585,304.995303 L340.246714,298.933169 L335.816089,294.640763 C335.773082,294.599098 335.750731,294.544161 335.750018,294.48874 C335.749306,294.43338 335.770196,294.377944 335.812076,294.335242 C335.846756,294.299882 335.892289,294.277117 335.941401,294.270024 L335.941401,294.270024 L342.060574,293.386289 L344.797988,287.873568 C344.825255,287.818658 344.872643,287.780408 344.926583,287.762229 Z" id="favorite-icn"></path>
        </g>
    </g>
</svg>