<?xml version="1.0" encoding="UTF-8"?>
<svg width="24px" height="24px" viewBox="0 0 24 24" version="1.1" xmlns="http://www.w3.org/2000/svg" xmlns:xlink="http://www.w3.org/1999/xlink">
    <title>3B31C626-CC8F-4FE2-B3B8-814EB611AFB1</title>
    <g id="Page-1" stroke="none" stroke-width="1" fill="none" fill-rule="evenodd">
        <g id="timer-assets" transform="translate(-35.000000, -683.000000)" fill="#000000">
            <g id="dash-icn_alt" transform="translate(35.000000, 683.000000)">
                <path d="M12,0 C18.627417,0 24,5.372583 24,12 C24,18.627417 18.627417,24 12,24 C5.372583,24 0,18.627417 0,12 C0,5.372583 5.372583,0 12,0 Z M12,4.75 C11.5857864,4.75 11.25,5.08578644 11.25,5.5 L11.25,5.5 L11.2503946,10.0701231 C9.39955342,10.4210217 8,12.0470693 8,14 C8,16.209139 9.790861,18 12,18 C14.209139,18 16,16.209139 16,14 C16,12.0474197 14.6009489,10.4216054 12.7506018,10.0703121 L12.7506018,10.0703121 L12.75,5.5 L12.7431534,5.39822944 C12.693491,5.03215388 12.3796958,4.75 12,4.75 Z M12,11.5 C13.3807119,11.5 14.5,12.6192881 14.5,14 C14.5,15.3807119 13.3807119,16.5 12,16.5 C10.6192881,16.5 9.5,15.3807119 9.5,14 C9.5,12.6192881 10.6192881,11.5 12,11.5 Z" id="Combined-Shape"></path>
            </g>
        </g>
    </g>
</svg>