<svg width="20" height="20" viewBox="0 0 20 20" fill="none" xmlns="http://www.w3.org/2000/svg">
<path d="M4.44721 10.0264L14.8292 4.83541C15.0441 4.72797 15.272 4.95593 15.1646 5.17082L9.97361 15.5528C9.85563 15.7887 9.5 15.7048 9.5 15.441V10.75C9.5 10.6119 9.38807 10.5 9.25 10.5H4.55902C4.29521 10.5 4.21126 10.1444 4.44721 10.0264Z" fill="#256FF8"/>
<path d="M20 13.25C20 12.8358 19.6642 12.5 19.25 12.5C18.8358 12.5 18.5 12.8358 18.5 13.25L20 13.25ZM13.25 18.5C12.8358 18.5 12.5 18.8358 12.5 19.25C12.5 19.6642 12.8358 20 13.25 20L13.25 18.5ZM18.5 13.25L18.5 16.25L20 16.25L20 13.25L18.5 13.25ZM16.25 18.5L13.25 18.5L13.25 20L16.25 20L16.25 18.5ZM18.5 16.25C18.5 17.4926 17.4926 18.5 16.25 18.5L16.25 20C18.3211 20 20 18.3211 20 16.25L18.5 16.25Z" fill="#256FF8"/>
<path d="M-1.04907e-06 6.75C-1.1215e-06 7.16421 0.335785 7.5 0.749999 7.5C1.16421 7.5 1.5 7.16421 1.5 6.75L-1.04907e-06 6.75ZM6.75 1.5C7.16421 1.5 7.5 1.16421 7.5 0.750001C7.5 0.335788 7.16421 1.1215e-06 6.75 1.04907e-06L6.75 1.5ZM1.5 6.75L1.5 3.75L-5.24537e-07 3.75L-1.04907e-06 6.75L1.5 6.75ZM3.75 1.5L6.75 1.5L6.75 1.04907e-06L3.75 5.24537e-07L3.75 1.5ZM1.5 3.75C1.5 2.50736 2.50736 1.5 3.75 1.5L3.75 5.24537e-07C1.67893 1.6242e-07 -1.6242e-07 1.67893 -5.24537e-07 3.75L1.5 3.75Z" fill="#256FF8"/>
<path d="M6.75 20C7.16421 20 7.5 19.6642 7.5 19.25C7.5 18.8358 7.16421 18.5 6.75 18.5L6.75 20ZM1.5 13.25C1.5 12.8358 1.16421 12.5 0.750001 12.5C0.335787 12.5 8.41123e-07 12.8358 7.86805e-07 13.25L1.5 13.25ZM6.75 18.5L3.75 18.5L3.75 20L6.75 20L6.75 18.5ZM1.5 16.25L1.5 13.25L7.86805e-07 13.25L3.93403e-07 16.25L1.5 16.25ZM3.75 18.5C2.50736 18.5 1.5 17.4926 1.5 16.25L3.93403e-07 16.25C1.21815e-07 18.3211 1.67893 20 3.75 20L3.75 18.5Z" fill="#256FF8"/>
<path d="M13.25 -1.31134e-06C12.8358 -1.40187e-06 12.5 0.335785 12.5 0.749999C12.5 1.16421 12.8358 1.5 13.25 1.5L13.25 -1.31134e-06ZM18.5 6.75C18.5 7.16421 18.8358 7.5 19.25 7.5C19.6642 7.5 20 7.16421 20 6.75L18.5 6.75ZM13.25 1.5L16.25 1.5L16.25 -6.55671e-07L13.25 -1.31134e-06L13.25 1.5ZM18.5 3.75L18.5 6.75L20 6.75L20 3.75L18.5 3.75ZM16.25 1.5C17.4926 1.5 18.5 2.50736 18.5 3.75L20 3.75C20 1.67893 18.3211 -2.03025e-07 16.25 -6.55671e-07L16.25 1.5Z" fill="#256FF8"/>
</svg>
