<svg width="20" height="18" viewBox="0 0 20 18" fill="none" xmlns="http://www.w3.org/2000/svg">
<path fill-rule="evenodd" clip-rule="evenodd" d="M0 4C0 1.79086 1.79086 0 4 0H16C18.2091 0 20 1.79086 20 4V14C20 16.2091 18.2091 18 16 18H4C1.79086 18 0 16.2091 0 14V4ZM7.5 7.5C7.22386 7.5 7 7.72386 7 8V9C7 9.27614 7.22386 9.5 7.5 9.5H8.5C8.77614 9.5 9 9.27614 9 9V8C9 7.72386 8.77614 7.5 8.5 7.5H7.5ZM3.5 11.5C3.22386 11.5 3 11.7239 3 12V13C3 13.2761 3.22386 13.5 3.5 13.5H4.5C4.77614 13.5 5 13.2761 5 13V12C5 11.7239 4.77614 11.5 4.5 11.5H3.5ZM7.5 11.5C7.22386 11.5 7 11.7239 7 12V13C7 13.2761 7.22386 13.5 7.5 13.5H8.5C8.77614 13.5 9 13.2761 9 13V12C9 11.7239 8.77614 11.5 8.5 11.5H7.5ZM11 12C11 11.7239 11.2239 11.5 11.5 11.5H12.5C12.7761 11.5 13 11.7239 13 12V13C13 13.2761 12.7761 13.5 12.5 13.5H11.5C11.2239 13.5 11 13.2761 11 13V12ZM11 8C11 7.72386 11.2239 7.5 11.5 7.5H12.5C12.7761 7.5 13 7.72386 13 8V9C13 9.27614 12.7761 9.5 12.5 9.5H11.5C11.2239 9.5 11 9.27614 11 9V8ZM15.5 7.5C15.2239 7.5 15 7.72386 15 8V9C15 9.27614 15.2239 9.5 15.5 9.5H16.5C16.7761 9.5 17 9.27614 17 9V8C17 7.72386 16.7761 7.5 16.5 7.5H15.5ZM2.5 4.5C1.94772 4.5 1.5 4.94771 1.5 5.5V14C1.5 15.3807 2.61929 16.5 4 16.5H16C17.3807 16.5 18.5 15.3807 18.5 14V5.5C18.5 4.94772 18.0523 4.5 17.5 4.5H2.5Z" fill="#1B1B1B"/>
</svg>
