<?xml version="1.0" encoding="UTF-8"?>
<svg width="16px" height="16px" viewBox="0 0 16 16" version="1.1" xmlns="http://www.w3.org/2000/svg" xmlns:xlink="http://www.w3.org/1999/xlink">
    <title>8074662D-9B85-4612-B14A-607618A091AC</title>
    <g id="Page-1" stroke="none" stroke-width="1" fill="none" fill-rule="evenodd">
        <g id="Projects-screen---scheduled" transform="translate(-28.000000, -333.000000)">
            <g id="2" transform="translate(20.000000, 325.000000)">
                <g id="briefcase-16" transform="translate(8.000000, 8.500000)">
                    <path d="M13.5,3.75 C13.9832492,3.75 14.4207492,3.94587542 14.7374369,4.26256313 C15.0541246,4.57925084 15.25,5.01675084 15.25,5.5 L15.25,5.5 L15.25,12.5 C15.25,12.9832492 15.0541246,13.4207492 14.7374369,13.7374369 C14.4207492,14.0541246 13.9832492,14.25 13.5,14.25 L13.5,14.25 L2.5,14.25 C2.01675084,14.25 1.57925084,14.0541246 1.26256313,13.7374369 C0.945875422,13.4207492 0.75,12.9832492 0.75,12.5 L0.75,12.5 L0.75,5.5 C0.75,5.01675084 0.945875422,4.57925084 1.26256313,4.26256313 C1.57925084,3.94587542 2.01675084,3.75 2.5,3.75 L2.5,3.75 Z" id="Rectangle" stroke="#FFFFFF" stroke-width="1.5"></path>
                    <path d="M10,0.75 C10.345178,0.75 10.657678,0.889911016 10.8838835,1.11611652 C11.110089,1.34232203 11.25,1.65482203 11.25,2 L11.25,2 L11.25,3.75 L4.75,3.75 L4.75,2 C4.75,1.65482203 4.88991102,1.34232203 5.11611652,1.11611652 C5.34232203,0.889911016 5.65482203,0.75 6,0.75 L6,0.75 Z" id="Rectangle" stroke="#FFFFFF" stroke-width="1.5"></path>
                    <path d="M1,7 C2.83333333,7.66666667 5.16666667,8 8,8 C10.8333333,8 13.1666667,7.66666667 15,7" id="Path-38" stroke="#FFFFFF" stroke-width="1.5" stroke-linecap="round"></path>
                    <path d="M6,8.5 L10,8.5 L10,9.5 C10,10.0522847 9.55228475,10.5 9,10.5 L7,10.5 C6.44771525,10.5 6,10.0522847 6,9.5 L6,8.5 L6,8.5 Z" id="Rectangle" fill="#FFFFFF"></path>
                </g>
            </g>
        </g>
    </g>
</svg>