<?xml version="1.0" encoding="UTF-8"?>
<svg width="20px" height="20px" viewBox="0 0 20 20" version="1.1" xmlns="http://www.w3.org/2000/svg" xmlns:xlink="http://www.w3.org/1999/xlink">
    <title>CEF13CB3-3DD7-4701-A703-7971331763A3</title>
    <g id="Page-1" stroke="none" stroke-width="1" fill="none" fill-rule="evenodd">
        <g id="More" transform="translate(-20.000000, -540.000000)" fill="#1B1B1B" fill-rule="nonzero">
            <g id="bug" transform="translate(20.000000, 540.000000)">
                <path d="M13.4103512,0.052875703 C13.6383241,-0.0244041706 13.8324091,-0.0169734135 13.9926063,0.0751679742 C14.1528035,0.167309362 14.2637092,0.298090687 14.3253235,0.467511948 C14.3869378,0.636933209 14.3823167,0.803382168 14.3114603,0.966858823 C14.2406038,1.13033548 14.0942699,1.24179684 13.8724584,1.30124289 L13.8724584,1.30124289 L13.2902033,1.50633179 C13.1053604,1.56577784 12.9775108,1.64305772 12.9066543,1.73817141 C12.8357979,1.8332851 12.8157733,1.94920491 12.8465804,2.08593084 L12.8465804,2.08593084 L12.9371337,2.46551056 L12.9814579,2.48942095 C13.4522297,2.76584511 13.8354898,3.11583377 14.1312384,3.53938692 C14.5255699,4.10412446 14.7258164,4.7788372 14.7319778,5.56352515 C15.1468474,5.91623842 15.5240638,6.31320598 15.863627,6.75442782 L15.863627,6.75442782 L15.8848404,6.78504175 L17.1349353,5.77753095 C17.3074553,5.63486042 17.4953789,5.562039 17.6987061,5.5590667 C17.9020333,5.55609439 18.0714726,5.63486042 18.207024,5.79536477 C18.3487369,5.95586912 18.3995687,6.13272114 18.3595194,6.32592083 C18.3194701,6.51912051 18.2162662,6.68705562 18.0499076,6.82972616 L18.0499076,6.82972616 L16.6381713,7.96232096 L16.7631957,8.19500392 C17.0192374,8.70359796 17.2294106,9.23530991 17.3937153,9.79013978 C17.5169439,10.2062622 17.6093654,10.6238707 17.6709797,11.0429654 L17.6709797,11.0429654 L17.6804683,11.1301395 L19.232902,11.136593 C19.4670364,11.136593 19.6534196,11.2004975 19.7920518,11.3283065 C19.9306839,11.4561155 20,11.6210783 20,11.8231949 C20,12.0312561 19.9306839,12.1991912 19.7920518,12.3270002 C19.6534196,12.4548093 19.4670364,12.5187138 19.232902,12.5187138 L19.232902,12.5187138 L17.7587036,12.5131686 L17.7546644,12.7343915 C17.7138931,13.725283 17.5304221,14.6342503 17.2042514,15.4612936 C17.1110598,15.6975917 17.0082409,15.9255301 16.8957948,16.145109 L16.8957948,16.145109 L16.7454295,16.4212 L18.0314233,17.467598 C18.2039433,17.5983793 18.3086876,17.761856 18.3456562,17.958028 C18.3826248,18.1541999 18.3302526,18.3325381 18.1885397,18.4930425 C18.0529883,18.6594914 17.883549,18.7397436 17.6802218,18.733799 C17.4768946,18.7278544 17.288971,18.6535468 17.116451,18.5108763 L17.116451,18.5108763 L15.942886,17.5509984 L15.8719385,17.635208 L15.6238447,17.8956096 C14.9430068,18.5732946 14.1266174,19.0934476 13.1746765,19.4560686 C12.2227357,19.8186895 11.1645102,20 10,20 C8.83548983,20 7.77880468,19.8186895 6.82994455,19.4560686 C5.88108441,19.0934476 5.06469501,18.5732946 4.38077634,17.8956096 C4.29528651,17.810899 4.21225162,17.7240984 4.13167167,17.635208 L4.13167167,17.635208 L4.05994331,17.5534333 L2.88354898,18.5108763 C2.71102896,18.6535468 2.52464572,18.7278544 2.32439926,18.733799 C2.1241528,18.7397436 1.95317314,18.6594914 1.81146026,18.4930425 C1.66974738,18.3325381 1.61891559,18.1541999 1.65896488,17.958028 C1.69901417,17.761856 1.80221811,17.5983793 1.96857671,17.467598 L1.96857671,17.467598 L3.25739988,16.4248523 L3.10709335,16.145109 C2.99503235,15.9255301 2.89279113,15.6975917 2.80036969,15.4612936 C2.47689464,14.6342503 2.29493993,13.725283 2.25450555,12.7343915 L2.25450555,12.7343915 L2.24917314,12.5131686 L0.767097967,12.5187138 C0.539125077,12.5187138 0.354282193,12.4548093 0.212569316,12.3270002 C0.0708564387,12.1991912 0,12.0312561 0,11.8231949 C0,11.6210783 0.0693160813,11.4561155 0.207948244,11.3283065 C0.346580407,11.2004975 0.532963648,11.136593 0.767097967,11.136593 L0.767097967,11.136593 L2.32488478,11.1301395 L2.33826248,11.0318193 C2.39987677,10.6112384 2.49229821,10.194373 2.6155268,9.78122287 C2.77983159,9.23035608 2.99000479,8.7026072 3.24604642,8.19797623 L3.24604642,8.19797623 L3.37222921,7.96232096 L1.95933457,6.82972616 C1.78681454,6.68705562 1.68052988,6.51912051 1.64048059,6.32592083 C1.6004313,6.13272114 1.65126309,5.95586912 1.79297597,5.79536477 C1.92852742,5.63486042 2.09796673,5.55609439 2.3012939,5.5590667 C2.50462107,5.562039 2.69254467,5.63486042 2.8650647,5.77753095 L2.8650647,5.77753095 L4.1280838,6.78991157 L4.14458821,6.7673078 C4.48278223,6.32740698 4.85726022,5.9291184 5.26802218,5.57244206 C5.28034504,4.78775411 5.48367221,4.11155522 5.8780037,3.54384538 C6.17375231,3.118063 6.55614603,2.76668107 7.02518484,2.4896996 L7.02518484,2.4896996 L7.06064818,2.46916292 L7.15341959,2.08593084 C7.19038817,1.94920491 7.17190388,1.8332851 7.09796673,1.73817141 C7.02402957,1.64305772 6.89463956,1.56577784 6.70979667,1.50633179 L6.70979667,1.50633179 L6.12754159,1.30124289 C5.90573013,1.24179684 5.76093654,1.13033548 5.69316081,0.966858823 C5.62538509,0.803382168 5.62230437,0.636933209 5.68391867,0.467511948 C5.74553296,0.298090687 5.85643869,0.167309362 6.01663586,0.0751679742 C6.17683303,-0.0169734135 6.37091805,-0.0244041706 6.59889094,0.052875703 L6.59889094,0.052875703 L7.28280961,0.311466049 C7.72643253,0.466025796 8.04990758,0.694893114 8.25323475,0.998068003 C8.42267406,1.25071374 8.50225919,1.54464147 8.49199014,1.87985118 L8.49199014,1.87985118 L8.48655083,1.93591753 L8.66913124,1.89644653 C9.08194701,1.82065281 9.52556993,1.78275595 10,1.78275595 C10.4744301,1.78275595 10.9184381,1.82065281 11.332024,1.89644653 L11.332024,1.89644653 L11.5137548,1.93591753 L11.5108338,1.87985118 C11.5048436,1.54464147 11.5865681,1.25071374 11.7560074,0.998068003 C11.9593346,0.694893114 12.2828096,0.466025796 12.7264325,0.311466049 L12.7264325,0.311466049 Z M14.0942699,6.94564597 C13.5828712,7.15965177 12.9651879,7.32907303 12.24122,7.45390975 C11.517252,7.57874647 10.7701787,7.64116483 10,7.64116483 C9.23598275,7.64116483 8.49199014,7.57726032 7.76802218,7.4494513 C7.04405422,7.32164228 6.42637092,7.15370717 5.91497227,6.94564597 C5.54528651,7.32015612 5.19100431,7.77789076 4.85212569,8.31884988 C4.51324707,8.85980899 4.23598275,9.46615877 4.02033272,10.1378992 C3.80468269,10.8096396 3.69685767,11.5319092 3.69685767,12.304708 C3.69685767,13.5649644 3.96025878,14.6676887 4.487061,15.612881 C5.01386322,16.5580733 5.74861368,17.2922321 6.69131238,17.8153574 C7.42452249,18.2222327 8.25464199,18.4708786 9.18167089,18.5612953 L9.18167089,18.5612953 L9.25,18.566 L9.25,9.5 C9.25,9.08578644 9.58578644,8.75 10,8.75 C10.3796958,8.75 10.693491,9.03215388 10.7431534,9.39822944 L10.75,9.5 L10.75,18.566 L10.8183291,18.5612953 C11.6294794,18.4821807 12.3664334,18.2819218 13.0291912,17.9605186 L13.3086876,17.8153574 C14.2513863,17.2922321 14.9861368,16.5580733 15.512939,15.612881 C16.0397412,14.6676887 16.3031423,13.5649644 16.3031423,12.304708 C16.3031423,11.5259646 16.1953173,10.8007227 15.9796673,10.1289823 C15.7640173,9.45724186 15.4867529,8.85237823 15.1478743,8.31439142 C14.8089957,7.77640461 14.4577942,7.32015612 14.0942699,6.94564597 Z M7.19963031,14.83711 C7.4892175,14.83711 7.73413432,14.9337098 7.93438078,15.1269095 C8.13462723,15.3201092 8.23475046,15.5564073 8.23475046,15.8358037 C8.23475046,16.1092556 8.13462723,16.3440675 7.93438078,16.5402395 C7.73413432,16.7364115 7.4892175,16.8344975 7.19963031,16.8344975 C6.91620456,16.8344975 6.6728281,16.7364115 6.46950092,16.5402395 C6.26617375,16.3440675 6.16451017,16.1092556 6.16451017,15.8358037 C6.16451017,15.5564073 6.26617375,15.3201092 6.46950092,15.1269095 C6.6728281,14.9337098 6.91620456,14.83711 7.19963031,14.83711 Z M12.8003697,14.83711 C13.0899569,14.83711 13.3348737,14.9337098 13.5351201,15.1269095 C13.7353666,15.3201092 13.8354898,15.5564073 13.8354898,15.8358037 C13.8354898,16.1092556 13.7353666,16.3440675 13.5351201,16.5402395 C13.3348737,16.7364115 13.0899569,16.8344975 12.8003697,16.8344975 C12.5169439,16.8344975 12.2735675,16.7364115 12.0702403,16.5402395 C11.8669131,16.3440675 11.7652495,16.1092556 11.7652495,15.8358037 C11.7652495,15.5564073 11.8669131,15.3201092 12.0702403,15.1269095 C12.2735675,14.9337098 12.5169439,14.83711 12.8003697,14.83711 Z M6.15526802,11.4130171 C6.51263093,11.4130171 6.81916205,11.5363677 7.07486137,11.7830688 C7.33056069,12.02977 7.45841035,12.3255141 7.45841035,12.6703012 C7.45841035,13.021033 7.33056069,13.3212355 7.07486137,13.570909 C6.81916205,13.8205824 6.51263093,13.9454191 6.15526802,13.9454191 C5.79790511,13.9454191 5.48983364,13.8205824 5.2310536,13.570909 C4.97227357,13.3212355 4.84288355,13.021033 4.84288355,12.6703012 C4.84288355,12.3255141 4.97227357,12.02977 5.2310536,11.7830688 C5.48983364,11.5363677 5.79790511,11.4130171 6.15526802,11.4130171 Z M13.8539741,11.4130171 C14.2174985,11.4130171 14.5271103,11.5363677 14.7828096,11.7830688 C15.0385089,12.02977 15.1663586,12.3255141 15.1663586,12.6703012 C15.1663586,13.021033 15.0385089,13.3212355 14.7828096,13.570909 C14.5271103,13.8205824 14.2174985,13.9454191 13.8539741,13.9454191 C13.4966112,13.9454191 13.1885397,13.8205824 12.9297597,13.570909 C12.6709797,13.3212355 12.5415896,13.021033 12.5415896,12.6703012 C12.5415896,12.3255141 12.6709797,12.02977 12.9297597,11.7830688 C13.1885397,11.5363677 13.4966112,11.4130171 13.8539741,11.4130171 Z M7.19963031,8.41693587 C7.51386322,8.41693587 7.78034504,8.52245262 7.99907579,8.73348612 C8.21780653,8.94451962 8.3271719,9.19865151 8.3271719,9.4958818 C8.3271719,9.79311208 8.21626617,10.0487301 7.99445471,10.2627359 C7.77264325,10.4767417 7.50770179,10.5837446 7.19963031,10.5837446 C6.89155884,10.5837446 6.62969809,10.4767417 6.41404806,10.2627359 C6.19839803,10.0487301 6.09057301,9.79311208 6.09057301,9.4958818 C6.09057301,9.19865151 6.19839803,8.94451962 6.41404806,8.73348612 C6.62969809,8.52245262 6.89155884,8.41693587 7.19963031,8.41693587 Z M12.8003697,8.41693587 C13.1084412,8.41693587 13.3733826,8.52245262 13.5951941,8.73348612 C13.8170055,8.94451962 13.9279113,9.19865151 13.9279113,9.4958818 C13.9279113,9.79311208 13.8170055,10.0487301 13.5951941,10.2627359 C13.3733826,10.4767417 13.1084412,10.5837446 12.8003697,10.5837446 C12.4922982,10.5837446 12.2288971,10.4767417 12.0101664,10.2627359 C11.7914356,10.0487301 11.6820702,9.79311208 11.6820702,9.4958818 C11.6820702,9.19865151 11.7914356,8.94451962 12.0101664,8.73348612 C12.2288971,8.52245262 12.4922982,8.41693587 12.8003697,8.41693587 Z"></path>
            </g>
        </g>
    </g>
</svg>