<?xml version="1.0" encoding="UTF-8"?>
<svg width="20px" height="20px" viewBox="0 0 20 20" version="1.1" xmlns="http://www.w3.org/2000/svg" xmlns:xlink="http://www.w3.org/1999/xlink">
    <title>BD98AA97-41F1-4F2F-8FF2-A33D2FD72BAB</title>
    <g id="Page-1" stroke="none" stroke-width="1" fill="none" fill-rule="evenodd">
        <g id="Task-details" transform="translate(-20.000000, -633.000000)">
            <g id="Group" transform="translate(0.000000, 50.000000)">
                <g id="open-outside-app" transform="translate(20.000000, 583.000000)">
                    <path d="M9,0.75 C9,1.16421356 8.66421356,1.5 8.25,1.5 L4,1.5 L4,1.5 C2.6745166,1.5 1.58996133,2.53153594 1.50531768,3.83562431 L1.5,4 L1.5,16 C1.5,17.3254834 2.53153594,18.4100387 3.83562431,18.4946823 L4,18.5 L16,18.5 C17.3254834,18.5 18.4100387,17.4684641 18.4946823,16.1643757 L18.5,16 L18.5,11.75 C18.5,11.3357864 18.8357864,11 19.25,11 C19.6642136,11 20,11.3357864 20,11.75 L20,16 L20,16 C20,18.209139 18.209139,20 16,20 L4,20 C1.790861,20 0,18.209139 0,16 L0,4 C0,1.790861 1.790861,0 4,0 L8.25,0 C8.66421356,-7.6089797e-17 9,0.335786438 9,0.75 Z" id="Shape" fill="#256FF8" fill-rule="nonzero"></path>
                    <polyline id="Path-23" stroke="#256FF8" stroke-width="1.5" stroke-linecap="round" stroke-linejoin="round" points="13.25 0.75 19.25 0.75 19.25 6.75"></polyline>
                    <line x1="18.5" y1="1.5" x2="8.5" y2="11.5" id="Path-24" stroke="#256FF8" stroke-width="1.5" stroke-linecap="round"></line>
                </g>
            </g>
        </g>
    </g>
</svg>