<?xml version="1.0" encoding="utf-8"?>
<!-- Generator: Adobe Illustrator 16.0.0, SVG Export Plug-In . SVG Version: 6.00 Build 0)  -->
<!DOCTYPE svg PUBLIC "-//W3C//DTD SVG 1.1//EN" "http://www.w3.org/Graphics/SVG/1.1/DTD/svg11.dtd">
<svg version="1.1" id="Layer_1" xmlns="http://www.w3.org/2000/svg" xmlns:xlink="http://www.w3.org/1999/xlink" x="0px" y="0px"
	 width="180px" height="180px" viewBox="0 0 180 180" enable-background="new 0 0 180 180" xml:space="preserve">
<g id="Shape_1">
	<g>
		<path fill="#294DFF" d="M160.209,148.367c-1.963-2.903-4.099-5.681-6.397-8.312c-6.084-6.973-13.433-12.742-21.45-17.38
			l-5.385-3.115l-0.337-0.177c-0.317-0.151-0.633-0.299-0.951-0.448c-1.677-0.774-3.661-0.363-4.905,0.998
			c-7.619,8.334-18.582,13.572-30.782,13.572c-12.169,0-23.106-5.209-30.725-13.506c-1.241-1.349-3.208-1.748-4.87-0.972
			l-0.03,0.015l-6.293,3.634c-10.109,5.839-19.128,13.485-26.043,22.875c-0.723,0.98-1.424,1.977-2.104,2.991
			c-1.693,2.517-0.844,5.948,1.784,7.469l40.201,23.257c2.279,1.318,5.138,0.727,6.816-1.3c5.06-6.104,12.699-10.002,21.263-10.002
			c8.571,0,16.215,3.905,21.278,10.017c1.678,2.027,4.532,2.621,6.815,1.304l40.404-23.337
			C161.178,154.403,161.933,150.927,160.209,148.367z"/>
	</g>
</g>
<g id="Rounded_Rectangle_2">
	<g>
		<path fill="#1F95FF" d="M76.117,2.906c-1.327-2.728-4.734-3.719-7.372-2.214L28.261,23.773c-2.257,1.287-3.23,4.011-2.32,6.439
			c2.792,7.456,2.35,16.046-1.975,23.467c-4.321,7.414-11.62,12.047-19.503,13.322C1.894,67.417,0,69.604,0,72.197
			c0.001,10.467,0.001,35.169,0.003,46.174c0,3.025,2.55,5.473,5.58,5.278c12.2-0.782,23.69-4.159,33.938-9.562l4.922-2.809
			c1.34-0.825,2.654-1.686,3.942-2.582c1.513-1.053,2.18-2.945,1.643-4.704c-3.26-10.668-2.252-22.597,3.811-32.998
			c6.091-10.452,16.054-17.249,27.024-19.671c1.762-0.387,3.114-1.838,3.282-3.625c0.203-2.116,0.329-4.255,0.368-6.415l0.003-3.259
			C84.286,25.449,81.293,13.554,76.117,2.906z"/>
	</g>
</g>
<g id="Rounded_Rectangle_1">
	<g>
		<path fill="#5FBBFF" d="M175.539,67.002c-7.883-1.276-15.182-5.909-19.503-13.322c-4.325-7.42-4.769-16.011-1.975-23.467
			c0.91-2.429-0.063-5.155-2.319-6.441L111.257,0.692c-2.638-1.504-6.048-0.515-7.372,2.213c-5.178,10.65-8.17,22.545-8.401,35.123
			l0.004,3.252c0.041,2.16,0.164,4.3,0.368,6.417c0.173,1.791,1.523,3.238,3.283,3.626c10.97,2.421,20.932,9.221,27.024,19.672
			c6.061,10.401,7.071,22.33,3.812,32.997c-0.536,1.76,0.128,3.652,1.644,4.705c1.288,0.894,2.602,1.757,3.938,2.582l4.925,2.806
			c10.248,5.405,21.738,8.782,33.939,9.563c3.026,0.194,5.577-2.252,5.577-5.278C180,107.363,180,82.664,180,72.195
			C180,69.603,178.108,67.417,175.539,67.002z"/>
	</g>
</g>
</svg>
