<?xml version="1.0" encoding="UTF-8"?>
<svg width="20px" height="20px" viewBox="0 0 20 20" version="1.1" xmlns="http://www.w3.org/2000/svg" xmlns:xlink="http://www.w3.org/1999/xlink">
    <title>601A4839-8DE6-44BA-929D-F12A1EFB3FC6</title>
    <g id="Page-1" stroke="none" stroke-width="1" fill="none" fill-rule="evenodd">
        <g id="sign-up" transform="translate(-36.000000, -266.000000)">
            <g id="Group" transform="translate(20.000000, 247.000000)">
                <g id="user" transform="translate(16.000000, 19.000000)">
                    <rect id="Rectangle" x="0" y="0" width="20" height="20"></rect>
                    <path d="M9.99465241,11.25 C12.3116729,11.25 14.2327726,12.1055177 15.6390723,13.324925 C17.2906088,14.7569779 18.25,16.6916465 18.25,18.3085676 C18.25,18.5943931 18.1799673,18.8381174 18.0048394,19.0000839 C17.8098111,19.1804554 17.5173823,19.25 17.171123,19.25 L17.171123,19.25 L2.82887701,19.25 C2.48261767,19.25 2.19018894,19.1804554 1.99516058,19.0000839 C1.82003275,18.8381174 1.75,18.5943931 1.75,18.3085676 C1.75,16.6918339 2.70911028,14.7574124 4.35868486,13.3253599 C5.76347662,12.1058118 7.68204464,11.25 9.99465241,11.25 Z M10,0.75 C10.8742844,0.75 11.6828106,1.17626848 12.2708809,1.86499185 C12.876405,2.57415647 13.25,3.5600458 13.25,4.68463303 C13.25,5.83573459 12.8699307,6.85913142 12.2559661,7.59824764 C11.6705676,8.3029748 10.8693752,8.75 10,8.75 C9.12820451,8.75 8.32800651,8.30535189 7.74368922,7.60510926 C7.12929085,6.86881764 6.75,5.84942551 6.75,4.70642202 C6.75,3.58588843 7.12759652,2.59222777 7.73714215,1.87503303 C8.32412202,1.18438928 9.12877314,0.75 10,0.75 Z" id="􀉪" stroke="#256FF8" stroke-width="1.5" fill-rule="nonzero"></path>
                </g>
            </g>
        </g>
    </g>
</svg>