<?xml version="1.0" encoding="UTF-8"?>
<svg width="21px" height="20px" viewBox="0 0 21 20" version="1.1" xmlns="http://www.w3.org/2000/svg" xmlns:xlink="http://www.w3.org/1999/xlink">
    <title>C369E8D1-899D-4FC9-8F63-A60728C79960</title>
    <g id="Page-1" stroke="none" stroke-width="1" fill="none" fill-rule="evenodd">
        <g id="More" transform="translate(-318.000000, -689.000000)" fill="#1B1B1B">
            <g id="user" transform="translate(20.000000, 678.000000)">
                <path d="M309.25,11 C309.664214,11 310,11.3357864 310,11.75 C310,12.1296596 309.717873,12.4434249 309.351832,12.4930826 L309.25,12.4999286 L309.25,12.4999286 L302,12.4992381 C300.674517,12.4988833 299.589863,13.5303068 299.505095,14.8343867 L299.499762,14.9987619 C299.499762,14.9988413 299.499762,14.9989206 299.5,14.999 L299.5,26.999 C299.500238,28.3796189 300.619381,29.4988685 302,29.4992381 L309.25,29.4999286 C309.664225,29.499968 310,29.8357749 310,30.25 C310,30.6642136 309.664214,31 309.25,31 L302,31 C299.790861,31 298,29.209139 298,27 L298,15 C298,12.790861 299.790861,11 302,11 L309.25,11 Z M314.446212,16.3970518 L314.53033,16.4696699 L318.53033,20.4696699 C318.55493,20.4942698 318.577829,20.5205706 318.598835,20.5483807 L318.602948,20.5537883 L318.603,20.555 L318.61012,20.5636206 C318.616767,20.5728903 318.623178,20.5822775 318.629351,20.5917738 C318.637591,20.6045672 318.645568,20.6176976 318.653145,20.6310842 C318.65583,20.6357103 318.658464,20.640489 318.661043,20.6452899 L318.668869,20.6602666 C318.67239,20.6671967 318.675797,20.6741701 318.67909,20.6811839 C318.686329,20.6965988 318.69336,20.7130006 318.699811,20.7296911 C318.703972,20.7405435 318.707697,20.7509087 318.711187,20.7613353 C318.718421,20.7827165 318.724829,20.8051728 318.730192,20.8280319 C318.732985,20.8402739 318.735424,20.8519672 318.737582,20.863702 C318.741253,20.8832199 318.744195,20.9038837 318.746277,20.9248004 C318.747839,20.9409019 318.748887,20.9562378 318.749465,20.9715881 C318.749812,20.9804163 318.75,20.9901861 318.75,21 L318.749427,21.0294084 C318.748854,21.0440905 318.747853,21.0587591 318.746422,21.0733936 L318.743153,21.1017706 L318.743153,21.1017706 L318.741372,21.1137679 C318.740967,21.1164173 318.740549,21.1190648 318.740116,21.1217105 L318.737582,21.136298 C318.735424,21.1480328 318.732985,21.1597261 318.730265,21.171367 C318.728033,21.1811718 318.725704,21.1903101 318.723209,21.1993797 L318.715787,21.224452 C318.713589,21.2314816 318.711286,21.2384852 318.708876,21.2454603 C318.706029,21.2536954 318.703091,21.2617447 318.700011,21.2697519 C318.697004,21.2775726 318.694086,21.2847816 318.691061,21.2919338 L318.678673,21.3197029 C318.67431,21.3289647 318.669748,21.3381557 318.664985,21.3472693 C318.66095,21.3549734 318.657106,21.3620345 318.653139,21.3690453 C318.643187,21.3865081 318.632539,21.4036581 318.621237,21.4203291 C318.614315,21.4306612 318.606824,21.4411291 318.599032,21.4514416 C318.597145,21.4538569 318.595443,21.4560847 318.593728,21.4583026 L318.53033,21.5303301 L314.53033,25.5303301 C314.237437,25.8232233 313.762563,25.8232233 313.46967,25.5303301 C313.203403,25.2640635 313.179197,24.8473998 313.397052,24.5537883 L313.46967,24.4696699 L316.188,21.75 L308,21.75 C307.585786,21.75 307.25,21.4142136 307.25,21 C307.25,20.6203042 307.532154,20.306509 307.898229,20.2568466 L308,20.25 L316.189,20.25 L313.46967,17.5303301 C313.176777,17.2374369 313.176777,16.7625631 313.46967,16.4696699 C313.735936,16.2034034 314.1526,16.1791973 314.446212,16.3970518 Z" id="logout"></path>
            </g>
        </g>
    </g>
</svg>