<?xml version="1.0" encoding="UTF-8"?>
<svg width="32px" height="32px" viewBox="0 0 32 32" version="1.1" xmlns="http://www.w3.org/2000/svg" xmlns:xlink="http://www.w3.org/1999/xlink">
    <title>304452C3-DE74-403D-A939-C574334BEC88</title>
    <g id="Page-1" stroke="none" stroke-width="1" fill="none" fill-rule="evenodd">
        <g id="screenshot-icons" transform="translate(-60.000000, -117.000000)" fill="#000000" fill-rule="nonzero">
            <g id="Group" transform="translate(60.000000, 117.000000)">
                <path d="M16,8.52651283e-13 C24.836556,8.52651283e-13 32,7.163444 32,16 C32,24.836556 24.836556,32 16,32 C7.163444,32 0,24.836556 0,16 C0,7.163444 7.163444,8.52651283e-13 16,8.52651283e-13 Z M21.9367928,21.7512394 L10.0632072,21.7512394 C11.122811,26.9366932 13.5294809,30.5 16,30.5 C18.4705191,30.5 20.877189,26.9366932 21.9367928,21.7512394 Z M8.53229377,21.7507745 L2.68504403,21.7505799 C4.40647607,25.731009 7.86053314,28.78725 12.0964101,29.968498 C10.4775778,28.1557306 9.20637863,25.2498446 8.53229377,21.7507745 Z M29.314956,21.7505799 L23.4677062,21.7507745 C22.7936214,25.2498446 21.5224222,28.1557306 19.9038447,29.9689605 C24.1394669,28.78725 27.5935239,25.731009 29.314956,21.7505799 Z M8.2853088,11.7499045 L2.13253807,11.7508705 C1.72128346,13.0946886 1.5,14.5215025 1.5,16 C1.5,17.4788659 1.72139376,18.9060225 2.13284555,20.2501341 L8.28544644,20.251097 C8.09937788,18.8974028 8,17.4719124 8,16 C8,14.5284506 8.09932887,13.1033002 8.2853088,11.7499045 Z M22.1985207,11.7503365 L9.80147932,11.7503365 C9.60676799,13.0900936 9.5,14.5161403 9.5,16 C9.5,17.4842283 9.60682103,18.9106148 9.80162442,20.2506618 L22.1983756,20.2506618 C22.393179,18.9106148 22.5,17.4842283 22.5,16 C22.5,14.5161403 22.393232,13.0900936 22.1985207,11.7503365 Z M29.8674619,11.7508705 L23.7146912,11.7499045 C23.9006711,13.1033002 24,14.5284506 24,16 C24,17.4719124 23.9006221,18.8974028 23.7145536,20.251097 L29.8671545,20.2501341 C30.2786062,18.9060225 30.5,17.4788659 30.5,16 C30.5,14.5215025 30.2787165,13.0946886 29.8674619,11.7508705 Z M12.0961553,2.03103953 L12.0485601,2.04493493 C7.83417219,3.23589577 4.3994105,6.28450357 2.68461034,10.250423 L8.53210157,10.2502233 C9.20613698,6.75070786 10.477424,3.84444173 12.0961553,2.03103953 Z M16,1.5 C13.5293214,1.5 11.1225003,5.06376688 10.063002,10.2497649 L21.936998,10.2497649 C20.8996595,5.17223394 18.5707683,1.64978466 16.1549299,1.50465917 L16,1.5 L16,1.5 Z M19.9035899,2.03150202 L19.9326755,2.06349466 C21.5376693,3.87901536 22.7978698,6.77151077 23.4678984,10.2502233 L29.3153897,10.250423 C27.5941041,6.26950442 24.1398226,3.21284916 19.9035899,2.03150202 Z" id="web-time"></path>
            </g>
        </g>
    </g>
</svg>