<svg width="16" height="16" viewBox="0 0 16 16" fill="none" xmlns="http://www.w3.org/2000/svg">
<path d="M7.99996 15.5C5.90621 15.5 4.13278 14.7735 2.67965 13.3203C1.22653 11.8672 0.499965 10.0938 0.499965 8.00003C0.499965 5.90628 1.22653 4.13284 2.67965 2.67972C4.13278 1.22659 5.90621 0.500031 7.99996 0.500031C9.07809 0.500031 10.1093 0.722843 11.0937 1.16847C12.0781 1.61347 12.9218 2.25003 13.625 3.07816V1.43753C13.625 1.17191 13.715 0.949093 13.895 0.769093C14.0743 0.589718 14.2968 0.500031 14.5625 0.500031C14.8281 0.500031 15.0506 0.589718 15.23 0.769093C15.41 0.949093 15.5 1.17191 15.5 1.43753V6.12503C15.5 6.39066 15.41 6.61316 15.23 6.79253C15.0506 6.97253 14.8281 7.06253 14.5625 7.06253H9.87496C9.60934 7.06253 9.38684 6.97253 9.20746 6.79253C9.02746 6.61316 8.93746 6.39066 8.93746 6.12503C8.93746 5.85941 9.02746 5.63659 9.20746 5.45659C9.38684 5.27722 9.60934 5.18753 9.87496 5.18753H12.875C12.375 4.31253 11.6915 3.62503 10.8247 3.12503C9.95715 2.62503 9.01559 2.37503 7.99996 2.37503C6.43746 2.37503 5.10934 2.92191 4.01559 4.01566C2.92184 5.10941 2.37496 6.43753 2.37496 8.00003C2.37496 9.56253 2.92184 10.8907 4.01559 11.9844C5.10934 13.0782 6.43746 13.625 7.99996 13.625C9.07809 13.625 10.0743 13.3397 10.9887 12.7691C11.9025 12.1991 12.5859 11.4375 13.039 10.4844C13.1172 10.3125 13.2462 10.1682 13.4262 10.0513C13.6056 9.93378 13.789 9.87503 13.9765 9.87503C14.3359 9.87503 14.6056 10 14.7856 10.25C14.965 10.5 14.9843 10.7813 14.8437 11.0938C14.25 12.4219 13.3359 13.4882 12.1015 14.2925C10.8672 15.0975 9.49996 15.5 7.99996 15.5Z" fill="#1B1B1B"/>
</svg>
