<?xml version="1.0" encoding="UTF-8"?>
<svg width="26px" height="22px" viewBox="0 0 26 22" version="1.1" xmlns="http://www.w3.org/2000/svg" xmlns:xlink="http://www.w3.org/1999/xlink">
    <title>D130B4B4-4F94-4656-8039-604B983E8821</title>
    <g id="Page-1" stroke="none" stroke-width="1" fill="none" fill-rule="evenodd">
        <g id="Timer---add-a-job-note" transform="translate(-39.000000, -136.000000)" stroke="#1B1B1B" stroke-width="1.5">
            <g id="add" transform="translate(20.000000, 115.000000)">
                <g id="camera" transform="translate(19.000000, 21.000000)">
                    <path d="M16.919668,0.75 L19.207168,3.25 L21,3.25 C22.1736051,3.25 23.2361051,3.72569745 24.0052038,4.49479618 C24.7743025,5.26389491 25.25,6.32639491 25.25,7.5 L25.25,7.5 L25.25,17 C25.25,18.1736051 24.7743025,19.2361051 24.0052038,20.0052038 C23.2361051,20.7743025 22.1736051,21.25 21,21.25 L21,21.25 L5,21.25 C3.82639491,21.25 2.76389491,20.7743025 1.99479618,20.0052038 C1.22569745,19.2361051 0.75,18.1736051 0.75,17 L0.75,17 L0.75,7.5 C0.75,6.32639491 1.22569745,5.26389491 1.99479618,4.49479618 C2.76389491,3.72569745 3.82639491,3.25 5,3.25 L5,3.25 L6.79283205,3.25 L9.08033205,0.75 L16.919668,0.75 Z" id="Path" fill-rule="nonzero"></path>
                    <circle id="Oval" cx="13" cy="12" r="5.25"></circle>
                </g>
            </g>
        </g>
    </g>
</svg>