<?xml version="1.0" encoding="UTF-8"?>
<svg width="24px" height="24px" viewBox="0 0 24 24" version="1.1" xmlns="http://www.w3.org/2000/svg" xmlns:xlink="http://www.w3.org/1999/xlink">
    <title>B21BC28E-AC59-4F01-AB10-BCF232E61E77</title>
    <g id="Page-1" stroke="none" stroke-width="1" fill="none" fill-rule="evenodd">
        <g id="timer-assets" transform="translate(-176.000000, -743.000000)" stroke="#000000" stroke-width="1.5">
            <g id="navigation" transform="translate(21.000000, 743.000000)">
                <g id="timer-on" transform="translate(152.000000, 0.000000)">
                    <g id="timer-icn" transform="translate(3.000000, 0.000000)">
                        <circle id="Oval" cx="12" cy="12" r="11.25"></circle>
                        <path d="M9.8232233,8.52273776 C10.0424861,8.44951446 10.0842712,8.46034209 10.1214107,8.48097514 L10.1214107,8.48097514 L16.0622847,11.7814607 C16.1226327,11.8149873 16.1636781,11.8698009 16.181255,11.9313197 C16.1988318,11.9928386 16.1929399,12.0610628 16.1594133,12.1214107 C16.1367411,12.1622207 16.1030947,12.1958671 16.0622847,12.2185393 L16.0622847,12.2185393 L10.1214107,15.5190249 C10.0610628,15.5525515 9.99283858,15.5584433 9.93131972,15.5408665 C9.86980086,15.5232897 9.81498733,15.4822442 9.78146068,15.4218963 C9.76082763,15.3847568 9.75,15.3429716 9.75,15.3004855 L9.75,15.3004855 L9.75,8.69951446 C9.75,8.63047887 9.7779822,8.56797887 9.8232233,8.52273776 Z" id="Rectangle"></path>
                    </g>
                </g>
            </g>
        </g>
    </g>
</svg>