<?xml version="1.0" encoding="UTF-8"?>
<svg width="118px" height="118px" viewBox="0 0 118 118" version="1.1" xmlns="http://www.w3.org/2000/svg" xmlns:xlink="http://www.w3.org/1999/xlink">
    <title>CDEA0D12-EF99-40A1-B34A-D1634128D465</title>
    <defs>
        <linearGradient x1="0%" y1="0%" x2="100%" y2="100%" id="linearGradient-1">
            <stop stop-color="#387EFF" offset="0%"></stop>
            <stop stop-color="#2841FF" offset="100%"></stop>
        </linearGradient>
    </defs>
    <g id="Page-1" stroke="none" stroke-width="1" fill="none" fill-rule="evenodd">
        <g id="timer-stopped" transform="translate(-130.000000, -423.000000)" fill="url(#linearGradient-1)">
            <g id="Group-2" transform="translate(32.000000, 169.000000)">
                <path d="M157,254 C189.5848,254 216,280.4152 216,313 C216,345.5848 189.5848,372 157,372 C124.4152,372 98,345.5848 98,313 C98,280.4152 124.4152,254 157,254 Z M145.5,292.781153 C143.014719,292.781153 141,294.795872 141,297.281153 L141,297.281153 L141,330.718847 C141,331.41745 141.162653,332.106459 141.475078,332.731308 C142.586529,334.954211 145.289558,335.855221 147.512461,334.743769 L147.512461,334.743769 L180.950155,318.024922 C181.821029,317.589486 182.52718,316.883334 182.962616,316.012461 C184.074068,313.789558 183.173059,311.086529 180.950155,309.975078 L180.950155,309.975078 L147.512461,293.256231 C146.887612,292.943806 146.198603,292.781153 145.5,292.781153 Z" id="Play"></path>
            </g>
        </g>
    </g>
</svg>