<?xml version="1.0" encoding="UTF-8"?>
<svg width="24px" height="24px" viewBox="0 0 24 24" version="1.1" xmlns="http://www.w3.org/2000/svg" xmlns:xlink="http://www.w3.org/1999/xlink">
    <title>23D01C10-A82D-455B-9C9A-D0C8C9F89075</title>
    <g id="Page-1" stroke="none" stroke-width="1" fill="none" fill-rule="evenodd">
        <g id="timer-assets" transform="translate(-176.000000, -683.000000)" fill="#000000">
            <g id="navigation" transform="translate(35.000000, 683.000000)">
                <g id="timer-icn_alt" transform="translate(141.000000, 0.000000)">
                    <path d="M12,0 C18.627417,0 24,5.372583 24,12 C24,18.627417 18.627417,24 12,24 C5.372583,24 0,18.627417 0,12 C0,5.372583 5.372583,0 12,0 Z M10,7.69951446 C9.44771525,7.69951446 9,8.14722971 9,8.69951446 L9,8.69951446 L9,15.3004855 C9,15.4704298 9.0433105,15.6375705 9.12584272,15.7861285 C9.39405591,16.2689122 10.0028592,16.442856 10.4856429,16.1746428 L10.4856429,16.1746428 L16.4265169,12.8741573 C16.589757,12.7834684 16.7243423,12.648883 16.8150312,12.4856429 C17.0832444,12.0028592 16.9093006,11.3940559 16.4265169,11.1258427 L16.4265169,11.1258427 L10.4856429,7.82535718 C10.3370849,7.74282496 10.1699442,7.69951446 10,7.69951446 Z" id="Combined-Shape"></path>
                </g>
            </g>
        </g>
    </g>
</svg>