<?xml version="1.0" encoding="UTF-8"?>
<svg width="118px" height="118px" viewBox="0 0 118 118" version="1.1" xmlns="http://www.w3.org/2000/svg" xmlns:xlink="http://www.w3.org/1999/xlink">
    <title>B3879958-F938-4275-9460-8F5EA351883A</title>
    <g id="Page-1" stroke="none" stroke-width="1" fill="none" fill-rule="evenodd">
        <g id="timer---break" transform="translate(-131.000000, -423.000000)" fill="#FFFFFF">
            <path d="M190,423 C222.5848,423 249,449.4152 249,482 C249,514.5848 222.5848,541 190,541 C157.4152,541 131,514.5848 131,482 C131,449.4152 157.4152,423 190,423 Z M206,460 L174,460 C170.686292,460 168,462.686292 168,466 L168,466 L168,498 C168,501.313708 170.686292,504 174,504 L174,504 L206,504 C209.313708,504 212,501.313708 212,498 L212,498 L212,466 C212,462.686292 209.313708,460 206,460 L206,460 Z" id="stop"></path>
        </g>
    </g>
</svg>