<?xml version="1.0" encoding="UTF-8"?>
<svg width="16px" height="16px" viewBox="0 0 16 16" version="1.1" xmlns="http://www.w3.org/2000/svg" xmlns:xlink="http://www.w3.org/1999/xlink">
    <title>C43F81E9-B888-4A4D-9AB6-0F09C2B62D1E</title>
    <g id="Page-1" stroke="none" stroke-width="1" fill="none" fill-rule="evenodd">
        <g id="Projects-screen---project-selected" transform="translate(-30.000000, -169.000000)" fill-rule="nonzero" stroke="#1B1B1B" stroke-width="1.5">
            <g id="search" transform="translate(20.000000, 157.000000)">
                <g transform="translate(10.000000, 12.000000)">
                    <path d="M7,0.75 C8.72588984,0.75 10.2883898,1.44955508 11.4194174,2.58058262 C12.5504449,3.71161016 13.25,5.27411016 13.25,7 C13.25,8.72588984 12.5504449,10.2883898 11.4194174,11.4194174 C10.2883898,12.5504449 8.72588984,13.25 7,13.25 C5.27411016,13.25 3.71161016,12.5504449 2.58058262,11.4194174 C1.44955508,10.2883898 0.75,8.72588984 0.75,7 C0.75,5.27411016 1.44955508,3.71161016 2.58058262,2.58058262 C3.71161016,1.44955508 5.27411016,0.75 7,0.75 Z" id="Icon"></path>
                    <line x1="12" y1="12" x2="15" y2="15" id="Path-5" stroke-linecap="round" stroke-linejoin="round"></line>
                </g>
            </g>
        </g>
    </g>
</svg>