<svg width="32" height="32" viewBox="0 0 32 32" fill="none" xmlns="http://www.w3.org/2000/svg">
<circle cx="16" cy="16" r="16" fill="#16D043"/>
<path fill-rule="evenodd" clip-rule="evenodd" d="M20.25 12C21.0784 12 21.75 11.3284 21.75 10.5C21.75 9.67157 21.0784 9 20.25 9C19.4216 9 18.75 9.67157 18.75 10.5C18.75 11.3284 19.4216 12 20.25 12ZM20.3931 13.1141L20.3349 13.0304C20.3138 13.004 20.2899 12.9703 20.2624 12.9315C20.0496 12.6309 19.6237 12.0294 18.6439 12.2575L15.1439 12.7575L15.0415 12.7795C14.7754 12.8564 14.57 13.0757 14.5146 13.3529L14.0146 15.8529L14.0013 15.9541C13.9782 16.3228 14.2306 16.661 14.6029 16.7354L14.704 16.7487C15.0728 16.7718 15.411 16.5194 15.4854 16.1471L15.881 14.167L17.116 13.9909L15.89 18.4869L15.104 20.584L12.7197 22.9697L12.6471 23.0538C12.4292 23.3474 12.4534 23.7641 12.7197 24.0303C13.0126 24.3232 13.4874 24.3232 13.7803 24.0303L16.2803 21.5303L16.3502 21.4497C16.3928 21.3929 16.4272 21.3302 16.4522 21.2633L17.715 17.8959L20.007 19.533L18.2815 20.9143L18.2 20.9899C17.9511 21.2577 17.9291 21.6745 18.1643 21.9685C18.4231 22.292 18.8951 22.3444 19.2185 22.0857L21.7185 20.0857L21.801 20.0091C22.1022 19.685 22.0596 19.1566 21.6859 18.8897L18.9 16.8999L19.493 14.5289L20.6069 16.3859L20.6672 16.4722C20.8854 16.742 21.2667 16.8302 21.5854 16.6708L23.5854 15.6708L23.6734 15.6192C23.9786 15.411 24.0906 15.0042 23.9208 14.6646L23.8692 14.5766C23.661 14.2714 23.2542 14.1594 22.9146 14.3292L21.536 15.018L20.3931 13.1141Z" fill="white"/>
<path d="M16.5 10.5H12" stroke="white" stroke-linecap="round"/>
<path d="M12.5 14H8.5" stroke="white" stroke-linecap="round"/>
<path d="M13 17.5H10.5" stroke="white" stroke-linecap="round"/>
<path d="M12 21.5H8.5" stroke="white" stroke-linecap="round"/>
</svg>
