<?xml version="1.0" encoding="UTF-8"?>
<svg width="20px" height="18px" viewBox="0 0 20 18" version="1.1" xmlns="http://www.w3.org/2000/svg" xmlns:xlink="http://www.w3.org/1999/xlink">
    <title>B90CC7DA-329C-4480-A039-644E2E0ED698</title>
    <g id="Page-1" stroke="none" stroke-width="1" fill="none" fill-rule="evenodd">
        <g id="Projects-screen---add-new" transform="translate(-320.000000, -614.000000)" stroke="#FFFFFF" stroke-width="1.5">
            <g id="create-project" transform="translate(305.000000, 598.000000)">
                <g id="project" transform="translate(15.000000, 16.000000)">
                    <path d="M6.68933983,0.75 L8.68930596,2.74996613 L17.9080335,2.75097118 C18.2698926,2.77831043 18.5837119,2.93449947 18.8020024,3.17424841 C19.0196306,3.41326983 19.1401795,3.73371263 19.1186633,4.07797286 L19.1186633,4.07797286 L18.3686633,16.0779729 C18.348076,16.4073697 18.2012043,16.7003765 17.9769696,16.911034 C17.7527349,17.1216916 17.4511371,17.25 17.1210976,17.25 L17.1210976,17.25 L2.89197293,17.25 C2.56026436,17.25 2.25744544,17.1204333 2.0329537,16.9080672 C1.80846195,16.695701 1.66229737,16.4005354 1.64389749,16.0693375 L1.64389749,16.0693375 L0.867322773,2.09099263 C0.87045998,1.70689093 1.00488745,1.36900382 1.23363981,1.12719025 C1.45752199,0.890524938 1.76957278,0.75 2.11419515,0.75 L2.11419515,0.75 L6.68933983,0.75 Z" id="Path-17"></path>
                    <line x1="1" y1="6" x2="19" y2="6" id="Path-21"></line>
                </g>
            </g>
        </g>
    </g>
</svg>