<?xml version="1.0" encoding="UTF-8"?>
<svg width="20px" height="20px" viewBox="0 0 20 20" version="1.1" xmlns="http://www.w3.org/2000/svg" xmlns:xlink="http://www.w3.org/1999/xlink">
    <title>89235762-DD04-4F5E-9913-5CB015DF1304</title>
    <g id="Page-1" stroke="none" stroke-width="1" fill="none" fill-rule="evenodd">
        <g id="Projects-screen---task-selected" transform="translate(-320.000000, -743.000000)" fill="#FFFFFF">
            <g id="add" transform="translate(305.000000, 728.000000)">
                <path d="M25,15 C25.5522847,15 26,15.4477153 26,16 L26,24 L34,24 C34.5522847,24 35,24.4477153 35,25 C35,25.5522847 34.5522847,26 34,26 L26,26 L26,34 C26,34.5522847 25.5522847,35 25,35 C24.4477153,35 24,34.5522847 24,34 L24,25.999 L16,26 C15.4477153,26 15,25.5522847 15,25 C15,24.4477153 15.4477153,24 16,24 L24,23.999 L24,16 C24,15.4477153 24.4477153,15 25,15 Z" id="+" transform="translate(25.000000, 25.000000) rotate(-180.000000) translate(-25.000000, -25.000000) "></path>
            </g>
        </g>
    </g>
</svg>