<?xml version="1.0" encoding="UTF-8"?>
<svg width="24px" height="24px" viewBox="0 0 24 24" version="1.1" xmlns="http://www.w3.org/2000/svg" xmlns:xlink="http://www.w3.org/1999/xlink">
    <title>612B13B3-F7D0-40EC-8EE1-A0E502CDAD06</title>
    <g id="Page-1" stroke="none" stroke-width="1" fill="none" fill-rule="evenodd">
        <g id="timer-assets" transform="translate(-245.000000, -683.000000)" fill="#000000">
            <g id="navigation" transform="translate(35.000000, 683.000000)">
                <g id="rep-icn_alt" transform="translate(210.000000, 0.000000)">
                    <path d="M19,0 C20.6568542,-3.04359188e-16 22,1.34314575 22,3 L22,21 C22,22.6568542 20.6568542,24 19,24 L5,24 C3.34314575,24 2,22.6568542 2,21 L2,3 C2,1.34314575 3.34314575,3.04359188e-16 5,0 L19,0 Z M17,9.25 L7,9.25 L6.89822944,9.25684662 C6.53215388,9.30650904 6.25,9.62030423 6.25,10 C6.25,10.4142136 6.58578644,10.75 7,10.75 L7,10.75 L17,10.75 L17.1017706,10.7431534 C17.4678461,10.693491 17.75,10.3796958 17.75,10 C17.75,9.58578644 17.4142136,9.25 17,9.25 L17,9.25 Z M17,5.25 L7,5.25 L6.89822944,5.25684662 C6.53215388,5.30650904 6.25,5.62030423 6.25,6 C6.25,6.41421356 6.58578644,6.75 7,6.75 L7,6.75 L17,6.75 L17.1017706,6.74315338 C17.4678461,6.69349096 17.75,6.37969577 17.75,6 C17.75,5.58578644 17.4142136,5.25 17,5.25 L17,5.25 Z" id="Combined-Shape"></path>
                </g>
            </g>
        </g>
    </g>
</svg>