<?xml version="1.0" encoding="UTF-8"?>
<svg width="20px" height="20px" viewBox="0 0 20 20" version="1.1" xmlns="http://www.w3.org/2000/svg" xmlns:xlink="http://www.w3.org/1999/xlink">
    <title>BA11C09F-1D2B-4EBF-8E49-25F99C747057</title>
    <g id="Page-1" stroke="none" stroke-width="1" fill="none" fill-rule="evenodd">
        <g id="log-in" transform="translate(-319.000000, -335.000000)">
            <g id="Group" transform="translate(20.000000, 247.000000)">
                <g id="password" transform="translate(0.000000, 69.000000)">
                    <g id="hidden" transform="translate(299.000000, 19.000000)">
                        <rect id="Rectangle" x="0" y="0" width="20" height="20"></rect>
                        <path d="M6.577858,14.482 L6.65810081,14.5291667 L6.65810081,14.5291667 L6.6544685,14.5270909 L6.577858,14.482 L5.487858,15.572 L5.634858,15.665 L5.60014205,15.6448875 L5.487858,15.572 L3.53033009,17.5303301 C3.23743687,17.8232233 2.76256313,17.8232233 2.46966991,17.5303301 C2.20340335,17.2640635 2.1791973,16.8473998 2.39705176,16.5537883 L2.46966991,16.4696699 L5.317858,13.62 L5.251858,13.566 L5.319858,13.618 L13.419858,5.518 L13.380858,5.494 L13.420858,5.517 L14.511858,4.426 L14.437858,4.379 L14.4861307,4.40877582 L14.512858,4.425 L16.4696699,2.46966991 C16.7625631,2.1767767 17.2374369,2.1767767 17.5303301,2.46966991 C17.7965966,2.73593648 17.8208027,3.15260016 17.6029482,3.44621165 L17.5303301,3.53033009 L14.680858,6.379 L14.7050395,6.39828367 L14.795858,6.472 L14.678858,6.381 L6.577858,14.482 Z M16.690858,6.134 L16.6927839,6.13553497 C17.3944279,6.79286992 18.0970719,7.55482057 18.7997159,8.42045001 L19.0754494,8.76393793 C19.6457062,9.48932139 19.6457062,10.5106786 19.0754494,11.2360621 C16.0498047,15.0784928 13.0249023,17 10,17 C8.87570296,17 7.75140593,16.7345508 6.62710889,16.2036524 L7.76815648,15.0619664 L7.659858,15.017 L7.86571125,15.0990068 C8.50831698,15.3377282 9.14187102,15.4688717 9.76615601,15.4950841 L10,15.5 C12.4895502,15.5 15.1285001,13.8238913 17.8962189,10.3090155 C18.0184167,10.1535762 18.0358736,9.94377436 17.9485894,9.7728029 L17.901,9.697 C17.2320079,8.84746801 16.5708143,8.10533446 15.9176304,7.46823027 L15.6316859,7.19554953 L16.690858,6.134 Z M13.863858,8.967 C13.9530966,9.29592479 14,9.64248496 14,10 C14,12.209139 12.209139,14 10,14 C9.6421231,14 9.29522327,13.9530016 8.9651359,13.8648402 L10.3542179,12.4750992 L10.287301,12.4836708 C11.3631708,12.3605729 12.2315022,11.5545289 12.4479673,10.5098667 L12.475858,10.343 L12.4750992,10.3542179 L13.863858,8.967 Z M10,3 C11.124297,3 12.2485941,3.2654492 13.3728911,3.79634761 L12.2328257,4.93840248 L12.351858,4.987 L12.118899,4.89528545 C11.4815782,4.66018672 10.8531502,4.53091921 10.233844,4.50491594 L10,4.5 C7.58812135,4.5 5.03625522,6.07314261 2.36304292,9.3680354 L2.098,9.697 L2.05141063,9.7728029 C1.97867379,9.91527912 1.97867379,10.0847209 2.05141063,10.2271971 L2.098,10.302 C2.76314152,11.1465755 3.42051856,11.885003 4.06993885,12.5196236 L4.36794933,12.8040857 L3.308858,13.866 L3.30788028,13.8650874 C2.6062387,13.207853 1.9032614,12.4455901 1.20028409,11.57955 L0.9245506,11.2360621 C0.389934849,10.5560151 0.356521364,9.6158349 0.824310147,8.90327125 L0.925292969,8.76452154 C3.95019531,4.92150718 6.97509766,3 10,3 Z M10,6 C10.3582388,6 10.7054782,6.0470935 11.0358653,6.13542737 L9.64578206,7.52490084 L9.8275279,7.50585627 C8.6932457,7.58314396 7.76670783,8.41702224 7.5486469,9.50675851 L7.52473368,9.64696262 L6.134858,11.034 L6.07696087,10.7846598 C6.0264366,10.5306407 6,10.2684077 6,10 C6,7.790861 7.790861,6 10,6 Z" id="Combined-Shape" fill="#1B1B1B" fill-rule="nonzero"></path>
                    </g>
                </g>
            </g>
        </g>
    </g>
</svg>