<?xml version="1.0" encoding="UTF-8"?>
<svg width="32px" height="28px" viewBox="0 0 32 28" version="1.1" xmlns="http://www.w3.org/2000/svg" xmlns:xlink="http://www.w3.org/1999/xlink">
    <title>A03D29F7-640F-42B1-ADCD-651941D2E471</title>
    <g id="Page-1" stroke="none" stroke-width="1" fill="none" fill-rule="evenodd">
        <g id="screenshot-icons" transform="translate(-122.000000, -119.000000)" fill="#000000" fill-rule="nonzero">
            <g id="Group" transform="translate(60.000000, 117.000000)">
                <path d="M72,30 C71.4477153,30 71,29.5522847 71,29 C71,28.4477153 71.4477153,28 72,28 L73,28 L73,24 L65,24 C63.3431458,24 62,22.6568542 62,21 L62,5 C62,3.34314575 63.3431458,2 65,2 L91,2 C92.6568542,2 94,3.34314575 94,5 L94,21 C94,22.6568542 92.6568542,24 91,24 L83,24 L83,28 L84,28 C84.5522847,28 85,28.4477153 85,29 C85,29.5522847 84.5522847,30 84,30 L72,30 Z M90.75,3.5 L65.25,3.5 L65.1064728,3.5058012 C64.2071103,3.57880766 63.5,4.3318266 63.5,5.25 L63.5,5.25 L63.5,19.75 L63.5064536,19.8778052 C63.5704661,20.5081253 64.1027913,21 64.75,21 L64.75,21 L91.25,21 L91.3778052,20.9935464 C92.0081253,20.9295339 92.5,20.3972087 92.5,19.75 L92.5,19.75 L92.5,5.25 L92.4941988,5.10647279 C92.4211923,4.20711027 91.6681734,3.5 90.75,3.5 L90.75,3.5 Z" id="desktop"></path>
            </g>
        </g>
    </g>
</svg>