<?xml version="1.0" encoding="UTF-8"?>
<svg width="20px" height="20px" viewBox="0 0 20 20" version="1.1" xmlns="http://www.w3.org/2000/svg" xmlns:xlink="http://www.w3.org/1999/xlink">
    <title>BFDCF205-8D6C-4991-81C6-4889DC821539</title>
    <g id="Page-1" stroke="none" stroke-width="1" fill="none" fill-rule="evenodd">
        <g id="Desktop-activity-list" transform="translate(-335.000000, -50.000000)" stroke="#1B1B1B" stroke-width="1.5">
            <path d="M339,64.75 C339.345178,64.75 339.657678,64.889911 339.883883,65.1161165 C340.110089,65.342322 340.25,65.654822 340.25,66 L340.25,66 L340.25,68 C340.25,68.345178 340.110089,68.657678 339.883883,68.8838835 C339.657678,69.110089 339.345178,69.25 339,69.25 L339,69.25 L337,69.25 C336.654822,69.25 336.342322,69.110089 336.116117,68.8838835 C335.889911,68.657678 335.75,68.345178 335.75,68 L335.75,68 L335.75,66 C335.75,65.654822 335.889911,65.342322 336.116117,65.1161165 C336.342322,64.889911 336.654822,64.75 337,64.75 L337,64.75 Z M346,64.75 C346.345178,64.75 346.657678,64.889911 346.883883,65.1161165 C347.110089,65.342322 347.25,65.654822 347.25,66 L347.25,66 L347.25,68 C347.25,68.345178 347.110089,68.657678 346.883883,68.8838835 C346.657678,69.110089 346.345178,69.25 346,69.25 L346,69.25 L344,69.25 C343.654822,69.25 343.342322,69.110089 343.116117,68.8838835 C342.889911,68.657678 342.75,68.345178 342.75,68 L342.75,68 L342.75,66 C342.75,65.654822 342.889911,65.342322 343.116117,65.1161165 C343.342322,64.889911 343.654822,64.75 344,64.75 L344,64.75 Z M353,64.75 C353.345178,64.75 353.657678,64.889911 353.883883,65.1161165 C354.110089,65.342322 354.25,65.654822 354.25,66 L354.25,66 L354.25,68 C354.25,68.345178 354.110089,68.657678 353.883883,68.8838835 C353.657678,69.110089 353.345178,69.25 353,69.25 L353,69.25 L351,69.25 C350.654822,69.25 350.342322,69.110089 350.116117,68.8838835 C349.889911,68.657678 349.75,68.345178 349.75,68 L349.75,68 L349.75,66 C349.75,65.654822 349.889911,65.342322 350.116117,65.1161165 C350.342322,64.889911 350.654822,64.75 351,64.75 L351,64.75 Z M339,57.75 C339.345178,57.75 339.657678,57.889911 339.883883,58.1161165 C340.110089,58.342322 340.25,58.654822 340.25,59 L340.25,59 L340.25,61 C340.25,61.345178 340.110089,61.657678 339.883883,61.8838835 C339.657678,62.110089 339.345178,62.25 339,62.25 L339,62.25 L337,62.25 C336.654822,62.25 336.342322,62.110089 336.116117,61.8838835 C335.889911,61.657678 335.75,61.345178 335.75,61 L335.75,61 L335.75,59 C335.75,58.654822 335.889911,58.342322 336.116117,58.1161165 C336.342322,57.889911 336.654822,57.75 337,57.75 L337,57.75 Z M346,57.75 C346.345178,57.75 346.657678,57.889911 346.883883,58.1161165 C347.110089,58.342322 347.25,58.654822 347.25,59 L347.25,59 L347.25,61 C347.25,61.345178 347.110089,61.657678 346.883883,61.8838835 C346.657678,62.110089 346.345178,62.25 346,62.25 L346,62.25 L344,62.25 C343.654822,62.25 343.342322,62.110089 343.116117,61.8838835 C342.889911,61.657678 342.75,61.345178 342.75,61 L342.75,61 L342.75,59 C342.75,58.654822 342.889911,58.342322 343.116117,58.1161165 C343.342322,57.889911 343.654822,57.75 344,57.75 L344,57.75 Z M353,57.75 C353.345178,57.75 353.657678,57.889911 353.883883,58.1161165 C354.110089,58.342322 354.25,58.654822 354.25,59 L354.25,59 L354.25,61 C354.25,61.345178 354.110089,61.657678 353.883883,61.8838835 C353.657678,62.110089 353.345178,62.25 353,62.25 L353,62.25 L351,62.25 C350.654822,62.25 350.342322,62.110089 350.116117,61.8838835 C349.889911,61.657678 349.75,61.345178 349.75,61 L349.75,61 L349.75,59 C349.75,58.654822 349.889911,58.342322 350.116117,58.1161165 C350.342322,57.889911 350.654822,57.75 351,57.75 L351,57.75 Z M339,50.75 C339.345178,50.75 339.657678,50.889911 339.883883,51.1161165 C340.110089,51.342322 340.25,51.654822 340.25,52 L340.25,52 L340.25,54 C340.25,54.345178 340.110089,54.657678 339.883883,54.8838835 C339.657678,55.110089 339.345178,55.25 339,55.25 L339,55.25 L337,55.25 C336.654822,55.25 336.342322,55.110089 336.116117,54.8838835 C335.889911,54.657678 335.75,54.345178 335.75,54 L335.75,54 L335.75,52 C335.75,51.654822 335.889911,51.342322 336.116117,51.1161165 C336.342322,50.889911 336.654822,50.75 337,50.75 L337,50.75 Z M346,50.75 C346.345178,50.75 346.657678,50.889911 346.883883,51.1161165 C347.110089,51.342322 347.25,51.654822 347.25,52 L347.25,52 L347.25,54 C347.25,54.345178 347.110089,54.657678 346.883883,54.8838835 C346.657678,55.110089 346.345178,55.25 346,55.25 L346,55.25 L344,55.25 C343.654822,55.25 343.342322,55.110089 343.116117,54.8838835 C342.889911,54.657678 342.75,54.345178 342.75,54 L342.75,54 L342.75,52 C342.75,51.654822 342.889911,51.342322 343.116117,51.1161165 C343.342322,50.889911 343.654822,50.75 344,50.75 L344,50.75 Z M353,50.75 C353.345178,50.75 353.657678,50.889911 353.883883,51.1161165 C354.110089,51.342322 354.25,51.654822 354.25,52 L354.25,52 L354.25,54 C354.25,54.345178 354.110089,54.657678 353.883883,54.8838835 C353.657678,55.110089 353.345178,55.25 353,55.25 L353,55.25 L351,55.25 C350.654822,55.25 350.342322,55.110089 350.116117,54.8838835 C349.889911,54.657678 349.75,54.345178 349.75,54 L349.75,54 L349.75,52 C349.75,51.654822 349.889911,51.342322 350.116117,51.1161165 C350.342322,50.889911 350.654822,50.75 351,50.75 L351,50.75 Z" id="Combined-Shape"></path>
        </g>
    </g>
</svg>