<?xml version="1.0" encoding="UTF-8"?>
<svg width="16px" height="12px" viewBox="0 0 16 12" version="1.1" xmlns="http://www.w3.org/2000/svg" xmlns:xlink="http://www.w3.org/1999/xlink">
    <title>B9068B5D-5B76-446B-A787-D4553FAE6638</title>
    <g id="Page-1" stroke="none" stroke-width="1" fill="none" fill-rule="evenodd">
        <g id="Reports" transform="translate(-21.000000, -107.000000)" fill="#000000">
            <path d="M32.25,117.5 C32.6642136,117.5 33,117.835786 33,118.25 C33,118.664214 32.6642136,119 32.25,119 L21.75,119 C21.3357864,119 21,118.664214 21,118.25 C21,117.835786 21.3357864,117.5 21.75,117.5 L32.25,117.5 Z M32.25,112.25 C32.6642136,112.25 33,112.585786 33,113 C33,113.414214 32.6642136,113.75 32.25,113.75 L21.75,113.75 C21.3357864,113.75 21,113.414214 21,113 C21,112.585786 21.3357864,112.25 21.75,112.25 L32.25,112.25 Z M36.25,107 C36.6642136,107 37,107.335786 37,107.75 C37,108.164214 36.6642136,108.5 36.25,108.5 L21.75,108.5 C21.3357864,108.5 21,108.164214 21,107.75 C21,107.335786 21.3357864,107 21.75,107 L36.25,107 Z" id="Combined-Shape"></path>
        </g>
    </g>
</svg>