<?xml version="1.0" encoding="UTF-8"?>
<svg width="24px" height="24px" viewBox="0 0 24 24" version="1.1" xmlns="http://www.w3.org/2000/svg" xmlns:xlink="http://www.w3.org/1999/xlink">
    <title>50991448-4DD1-4F66-B0F6-89B4769C8F13</title>
    <g id="Page-1" stroke="none" stroke-width="1" fill="none" fill-rule="evenodd">
        <g id="timer-assets" transform="translate(-316.000000, -743.000000)" stroke="#000000" stroke-width="1.5">
            <g id="navigation" transform="translate(21.000000, 743.000000)">
                <g id="more-icn" transform="translate(295.000000, 0.000000)">
                    <path d="M3,9.75 C3.62132034,9.75 4.18382034,10.0018398 4.59099026,10.4090097 C4.99816017,10.8161797 5.25,11.3786797 5.25,12 C5.25,12.6213203 4.99816017,13.1838203 4.59099026,13.5909903 C4.18382034,13.9981602 3.62132034,14.25 3,14.25 C2.37867966,14.25 1.81617966,13.9981602 1.40900974,13.5909903 C1.00183983,13.1838203 0.75,12.6213203 0.75,12 C0.75,11.3786797 1.00183983,10.8161797 1.40900974,10.4090097 C1.81617966,10.0018398 2.37867966,9.75 3,9.75 Z M12,9.75 C12.6213203,9.75 13.1838203,10.0018398 13.5909903,10.4090097 C13.9981602,10.8161797 14.25,11.3786797 14.25,12 C14.25,12.6213203 13.9981602,13.1838203 13.5909903,13.5909903 C13.1838203,13.9981602 12.6213203,14.25 12,14.25 C11.3786797,14.25 10.8161797,13.9981602 10.4090097,13.5909903 C10.0018398,13.1838203 9.75,12.6213203 9.75,12 C9.75,11.3786797 10.0018398,10.8161797 10.4090097,10.4090097 C10.8161797,10.0018398 11.3786797,9.75 12,9.75 Z M21,9.75 C21.6213203,9.75 22.1838203,10.0018398 22.5909903,10.4090097 C22.9981602,10.8161797 23.25,11.3786797 23.25,12 C23.25,12.6213203 22.9981602,13.1838203 22.5909903,13.5909903 C22.1838203,13.9981602 21.6213203,14.25 21,14.25 C20.3786797,14.25 19.8161797,13.9981602 19.4090097,13.5909903 C19.0018398,13.1838203 18.75,12.6213203 18.75,12 C18.75,11.3786797 19.0018398,10.8161797 19.4090097,10.4090097 C19.8161797,10.0018398 20.3786797,9.75 21,9.75 Z"></path>
                </g>
            </g>
        </g>
    </g>
</svg>