<?xml version="1.0" encoding="UTF-8"?>
<svg width="24px" height="24px" viewBox="0 0 24 24" version="1.1" xmlns="http://www.w3.org/2000/svg" xmlns:xlink="http://www.w3.org/1999/xlink">
    <title>474BD2B7-A68C-4E23-A63C-BC8830AB3C61</title>
    <g id="Page-1" stroke="none" stroke-width="1" fill="none" fill-rule="evenodd">
        <g id="timer-assets" transform="translate(-106.000000, -683.000000)" fill="#000000">
            <g id="navigation" transform="translate(35.000000, 683.000000)">
                <g id="time-icn_alt" transform="translate(71.000000, 0.000000)">
                    <path d="M12,0 C18.627417,0 24,5.372583 24,12 C24,18.627417 18.627417,24 12,24 C5.372583,24 0,18.627417 0,12 C0,5.372583 5.372583,0 12,0 Z M12,5.25 C11.5857864,5.25 11.25,5.58578644 11.25,6 L11.25,6 L11.25,12 L11.2593431,12.1180341 C11.2840724,12.273214 11.3571481,12.4178083 11.4696699,12.5303301 L11.4696699,12.5303301 L15.4696699,16.5303301 L15.5537883,16.6029482 C15.8473998,16.8208027 16.2640635,16.7965966 16.5303301,16.5303301 L16.5303301,16.5303301 L16.6029482,16.4462117 C16.8208027,16.1526002 16.7965966,15.7359365 16.5303301,15.4696699 L16.5303301,15.4696699 L12.75,11.689 L12.75,6 L12.7431534,5.89822944 C12.693491,5.53215388 12.3796958,5.25 12,5.25 Z" id="Combined-Shape"></path>
                </g>
            </g>
        </g>
    </g>
</svg>