<?xml version="1.0" encoding="UTF-8"?>
<svg width="20px" height="18px" viewBox="0 0 20 18" version="1.1" xmlns="http://www.w3.org/2000/svg" xmlns:xlink="http://www.w3.org/1999/xlink">
    <title>8BA83492-139B-4428-8C5E-0F618CBE99CC</title>
    <g id="Page-1" stroke="none" stroke-width="1" fill="none" fill-rule="evenodd">
        <g id="More" transform="translate(-40.000000, -409.000000)" fill="#256FF8" fill-rule="nonzero">
            <g id="screenshots" transform="translate(20.000000, 390.000000)">
                <path d="M36,19 C38.209139,19 40,20.790861 40,23 L40,33 C40,35.209139 38.209139,37 36,37 L24,37 C21.790861,37 20,35.209139 20,33 L20,23 C20,20.790861 21.790861,19 24,19 L36,19 Z M36,20.5 L24,20.5 C22.6745166,20.5 21.5899613,21.5315359 21.5053177,22.8356243 L21.5,23 L21.5,32.071 L23.8583004,30.0500282 C24.2287994,29.7324576 24.7744027,29.7286689 25.1492762,30.0410635 L27.5,32 L32.0413811,28.2843246 C32.5978635,27.8290208 33.3991562,27.8326301 33.9515143,28.2929286 L38.5,32.083 L38.5,23 C38.5,21.6745166 37.4684641,20.5899613 36.1643757,20.5053177 L36,20.5 Z M26,24 C27.1045695,24 28,24.8954305 28,26 C28,27.1045695 27.1045695,28 26,28 C24.8954305,28 24,27.1045695 24,26 C24,24.8954305 24.8954305,24 26,24 Z" id="photo"></path>
            </g>
        </g>
    </g>
</svg>