<svg width="22" height="22" viewBox="0 0 22 22" fill="none" xmlns="http://www.w3.org/2000/svg">
<path d="M10.9341 0.93313C16.494 0.89673 21.0305 5.3743 21.0669 10.9342C21.1033 16.493 16.6258 21.0286 11.0659 21.065C5.50601 21.1024 0.971441 16.6248 0.935048 11.066C0.897641 5.50611 5.37421 0.969529 10.9341 0.93313ZM13.9887 15.5099L8.07155 15.5487C8.7437 17.9751 9.89552 19.5649 11.057 19.5573C12.2175 19.5497 13.3474 17.9439 13.9877 15.5099L13.9887 15.5099ZM6.51048 15.5589L3.76779 15.5768C4.75016 17.1252 6.20237 18.3185 7.91185 18.982C7.38105 18.1601 6.9405 17.1303 6.61373 15.9558L6.50847 15.5589L6.51048 15.5589ZM18.2915 15.4818L15.5518 15.4997C15.2345 16.8455 14.7711 18.0212 14.1924 18.9419C15.7854 18.2997 17.1491 17.1944 18.1072 15.7688L18.2915 15.4828L18.2915 15.4818ZM6.04895 9.01942L2.66914 9.04155L2.66422 9.05869C2.51308 9.7136 2.43943 10.384 2.44479 11.0561C2.45013 12.0874 2.64233 13.1092 3.01209 14.072L6.20569 14.0511C6.05178 13.0523 5.97217 12.0436 5.96752 11.033C5.96301 10.3446 5.9908 9.67002 6.04995 9.01841L6.04895 9.01942ZM14.4059 8.96471L7.56775 9.00948C7.40167 10.6868 7.45844 12.3787 7.73657 14.0411L14.3029 13.9981C14.5592 12.3322 14.5938 10.6397 14.4059 8.96471ZM19.3055 8.93263L15.9257 8.95476C15.9923 9.60555 16.03 10.2797 16.0345 10.9671C16.0427 11.9776 15.976 12.9874 15.8348 13.988L19.0284 13.9671C19.3858 12.9996 19.565 11.9754 19.5572 10.9441C19.5527 10.2506 19.4657 9.57677 19.3055 8.93263ZM7.80759 3.05726L7.78449 3.06546C5.72964 3.90196 4.07832 5.50134 3.1766 7.52842L6.24439 7.50834C6.54888 5.74289 7.08837 4.20338 7.80861 3.05927L7.80759 3.05726ZM10.944 2.44186L10.8262 2.44767C9.55581 2.57476 8.33805 4.59681 7.78634 7.49824L14.1695 7.45645C13.5809 4.57154 12.3429 2.56758 11.0718 2.44908L10.944 2.44287L10.944 2.44186ZM14.0881 3.01514L14.1959 3.19057C14.8776 4.30538 15.3975 5.77152 15.7084 7.44537L18.7762 7.42529C17.8898 5.50265 16.3245 3.97515 14.3808 3.13602L14.0881 3.01614L14.0881 3.01514Z" fill="#256FF8"/>
</svg>
