<?xml version="1.0" encoding="UTF-8"?>
<svg width="20px" height="21px" viewBox="0 0 20 21" version="1.1" xmlns="http://www.w3.org/2000/svg" xmlns:xlink="http://www.w3.org/1999/xlink">
    <title>A41D1DEC-8946-4FBF-B30E-87C36F34D72F</title>
    <g id="Page-1" stroke="none" stroke-width="1" fill="none" fill-rule="evenodd">
        <g id="timer-running-" transform="translate(-32.000000, -680.000000)" stroke="#3875E8" stroke-width="1.5">
            <g id="coffee" transform="translate(32.000000, 681.000000)">
                <path d="M19.25,17.2499877 C16.1501045,18.3145095 13.075103,18.75 10,18.75 C6.98589268,18.75 3.97188287,18.3316143 0.958371113,17.4958797 L0.958371113,17.4958797 Z" id="Rectangle"></path>
                <path d="M15,5.25 C15.345178,5.25 15.657678,5.38991102 15.8838835,5.61611652 C16.110089,5.84232203 16.25,6.15482203 16.25,6.5 L16.25,6.5 L16.25,11 C16.25,12.5878187 15.6064093,14.0253187 14.565864,15.065864 C13.5253187,16.1064093 12.0878187,16.75 10.5,16.75 L10.5,16.75 L9.5,16.75 C7.91218134,16.75 6.47468134,16.1064093 5.43413601,15.065864 C4.39359067,14.0253187 3.75,12.5878187 3.75,11 L3.75,11 L3.75,6.5 C3.75,6.15482203 3.88991102,5.84232203 4.11611652,5.61611652 C4.34232203,5.38991102 4.65482203,5.25 5,5.25 L5,5.25 Z" id="Rectangle"></path>
                <path d="M3.75,7.25 L3.75,11.75 L3,11.75 C2.37867966,11.75 1.81617966,11.4981602 1.40900974,11.0909903 C1.00183983,10.6838203 0.75,10.1213203 0.75,9.5 L0.75,9.5 L0.75,8 C0.75,7.79289322 0.833946609,7.60539322 0.969669914,7.46966991 C1.10539322,7.33394661 1.29289322,7.25 1.5,7.25 L1.5,7.25 L3.75,7.25 Z" id="Rectangle"></path>
                <path d="M6.5,3 C6.83333333,2 7.66666667,1.5 9,1.5 C10.3333333,1.5 11.1666667,1 11.5,0" id="Path-34" stroke-linecap="round"></path>
                <path d="M12,3 C14,2.66666667 15.3333333,1.66666667 16,0" id="Path-35" stroke-linecap="round"></path>
            </g>
        </g>
    </g>
</svg>