<?xml version="1.0" encoding="UTF-8"?>
<svg width="20px" height="20px" viewBox="0 0 20 20" version="1.1" xmlns="http://www.w3.org/2000/svg" xmlns:xlink="http://www.w3.org/1999/xlink">
    <title>1B3D7D1B-F24C-46B3-B7FD-7B20CF332339</title>
    <g id="Page-1" stroke="none" stroke-width="1" fill="none" fill-rule="evenodd">
        <g id="Projects-screen---add-new" transform="translate(-320.000000, -678.000000)">
            <g id="create-task" transform="translate(305.000000, 663.000000)">
                <g id="task" transform="translate(15.000000, 15.000000)">
                    <path d="M14,0 L14,1.5 L4,1.5 C2.6745166,1.5 1.58996133,2.53153594 1.50531768,3.83562431 L1.5,4 L1.5,16 C1.5,17.3254834 2.53153594,18.4100387 3.83562431,18.4946823 L4,18.5 L16,18.5 C17.3254834,18.5 18.4100387,17.4684641 18.4946823,16.1643757 L18.5,16 L18.5,10 L20,10 L20,16 C20,18.209139 18.209139,20 16,20 L4,20 C1.790861,20 0,18.209139 0,16 L0,4 C0,1.790861 1.790861,0 4,0 L14,0 Z" id="Path" fill="#FFFFFF" fill-rule="nonzero"></path>
                    <polyline id="Path-22" stroke="#FFFFFF" stroke-width="1.5" stroke-linecap="round" stroke-linejoin="round" points="5 9 9 13 19 3"></polyline>
                    <circle id="Oval" fill="#FFFFFF" cx="14" cy="0.75" r="1"></circle>
                    <circle id="Oval-Copy" fill="#FFFFFF" cx="19.25" cy="10" r="1"></circle>
                </g>
            </g>
        </g>
    </g>
</svg>