<?xml version="1.0" encoding="UTF-8"?>
<svg width="20px" height="32px" viewBox="0 0 20 32" version="1.1" xmlns="http://www.w3.org/2000/svg" xmlns:xlink="http://www.w3.org/1999/xlink">
    <title>DDE0E532-183A-49E4-960C-043FAC9C17A3</title>
    <g id="Page-1" stroke="none" stroke-width="1" fill="none" fill-rule="evenodd">
        <g id="screenshot-icons" transform="translate(-234.000000, -117.000000)" fill="#000000" fill-rule="nonzero">
            <g id="Group" transform="translate(60.000000, 117.000000)">
                <path d="M174,31 C174,30.4477153 174.447715,30 175,30 L175,24.8837491 C175,23.0610468 175.828538,21.3371693 177.25183,20.1985362 L180.547828,17.5617376 C181.410352,16.8717185 181.550195,15.6131338 180.860176,14.7506099 C180.767912,14.6352805 180.663157,14.5305259 180.547828,14.4382624 L177.25183,11.8014638 C175.828538,10.6628307 175,8.93895325 175,7.11625092 L175,2 C174.447715,2 174,1.55228475 174,1 C174,0.44771525 174.447715,8.52752736e-13 175,8.52651283e-13 L193,8.52651283e-13 C193.552285,8.5254983e-13 194,0.44771525 194,1 C194,1.55228475 193.552285,2 193,2 L193,7.11625092 C193,8.93895325 192.171462,10.6628307 190.74817,11.8014638 L187.452172,14.4382624 C186.589648,15.1282815 186.449805,16.3868662 187.139824,17.2493901 C187.232088,17.3647195 187.336843,17.4694741 187.452172,17.5617376 L190.74817,20.1985362 C192.171462,21.3371693 193,23.0610468 193,24.8837491 L193,30 C193.552285,30 194,30.4477153 194,31 C194,31.5522847 193.552285,32 193,32 L175,32 C174.447715,32 174,31.5522847 174,31 Z M191.5,2 L176.5,2 L176.5,7.11625092 C176.5,8.40286433 177.050448,9.62382242 178.005162,10.474977 L178.188872,10.6301606 L181.484871,13.2669592 C181.686697,13.4284203 181.870018,13.6117409 182.031479,13.8135673 C183.239012,15.3229841 182.994287,17.5255074 181.484871,18.7330408 L178.188872,21.3698394 C177.184196,22.1735805 176.57465,23.3661343 176.506415,24.6433527 L176.5,24.8837491 L176.5,30 L191.5,30 L191.5,24.8837491 C191.5,23.5971357 190.949552,22.3761776 189.994838,21.525023 L189.811128,21.3698394 L186.515129,18.7330408 C186.313303,18.5715797 186.129982,18.3882591 185.968521,18.1864327 C184.760988,16.6770159 185.005713,14.4744926 186.515129,13.2669592 L189.811128,10.6301606 C190.815804,9.82641953 191.42535,8.63386569 191.493585,7.35664728 L191.5,7.11625092 L191.5,2 Z M187.5,23 C189.156854,23 190.5,24.3431458 190.5,26 L190.5,29 L177.5,29 L177.5,26 C177.5,24.3431458 178.843146,23 180.5,23 L187.5,23 Z" id="idle-time"></path>
            </g>
        </g>
    </g>
</svg>