<?xml version="1.0" encoding="UTF-8"?>
<svg width="20px" height="20px" viewBox="0 0 20 20" version="1.1" xmlns="http://www.w3.org/2000/svg" xmlns:xlink="http://www.w3.org/1999/xlink">
    <title>CC2DCF0B-7D93-4E25-8EDC-599E31482D33</title>
    <g id="Page-1" stroke="none" stroke-width="1" fill="none" fill-rule="evenodd">
        <g id="More" transform="translate(-213.000000, -319.000000)" fill="#256FF8" fill-rule="nonzero">
            <g id="map" transform="translate(193.000000, 300.000000)">
                <path d="M35.1050289,19.368343 L38.6324555,20.5441518 C39.4491398,20.8163799 40,21.5806576 40,22.4415184 L40,37.6125741 C40,38.1648589 39.5522847,38.6125741 39,38.6125741 C38.8925179,38.6125741 38.7857387,38.5952462 38.6837722,38.5612574 L34,37 L27.1300247,38.7174938 C26.3920022,38.9019994 25.6166687,38.8722229 24.8949711,38.631657 L21.3675445,37.4558482 C20.5508602,37.1836201 20,36.4193424 20,35.5584816 L20,20.3874259 C20,19.8351411 20.4477153,19.3874259 21,19.3874259 C21.1074821,19.3874259 21.2142613,19.4047538 21.3162278,19.4387426 L26,21 L32.8699753,19.2825062 C33.6079978,19.0980006 34.3833313,19.1277771 35.1050289,19.368343 Z M33.25,20.7330759 L33.2337788,20.7377199 L25.9400442,22.5611536 L21.5,21.081 L21.5,35.5584816 C21.5,35.7429517 21.6011784,35.9096822 21.7586607,35.9964128 L21.8418861,36.0328232 L25.25,37.1680759 L25.25,28 C25.25,27.5857864 25.5857864,27.25 26,27.25 C26.3796958,27.25 26.693491,27.5321539 26.7431534,27.8982294 L26.75,28 L26.75,37.2650759 L26.7662212,37.2622801 L34.0599558,35.4388464 L38.5,36.919 L38.5,22.4415184 C38.5,22.2570483 38.3988216,22.0903178 38.2413393,22.0035872 L38.1581139,21.9671768 L34.75,20.8310759 L34.75,30 C34.75,30.4142136 34.4142136,30.75 34,30.75 C33.6203042,30.75 33.306509,30.4678461 33.2568466,30.1017706 L33.25,30 L33.25,20.7330759 Z"></path>
            </g>
        </g>
    </g>
</svg>