<svg width="14" height="14" viewBox="0 0 14 14" fill="none" xmlns="http://www.w3.org/2000/svg">
<path d="M4.615 12.25L7.75 12.25C9.4075 12.25 10.75 10.9075 10.75 9.25C10.75 7.5925 9.4075 6.25 7.75 6.25L5.5 6.25C4.675 6.25 4 5.575 4 4.75C4 3.925 4.675 3.25 5.5 3.25L9.385 3.25C9.7 4.12 10.525 4.75 11.5 4.75C12.745 4.75 13.75 3.745 13.75 2.5C13.75 1.255 12.745 0.25 11.5 0.25C10.525 0.25 9.7 0.88 9.385 1.75L5.5 1.75C3.8425 1.75 2.5 3.0925 2.5 4.75C2.5 6.4075 3.8425 7.75 5.5 7.75L7.75 7.75C8.575 7.75 9.25 8.425 9.25 9.25C9.25 10.075 8.575 10.75 7.75 10.75L4.615 10.75C4.43804 10.2505 4.09025 9.82966 3.63307 9.56174C3.17589 9.29383 2.63874 9.19611 2.11649 9.28584C1.59425 9.37557 1.12052 9.64699 0.778986 10.0521C0.437452 10.4573 0.250091 10.9701 0.25 11.5C0.249999 12.745 1.255 13.75 2.5 13.75C3.475 13.75 4.3 13.12 4.615 12.25Z" fill="#3875E8"/>
</svg>
