<svg width="14" height="14" viewBox="0 0 14 14" fill="none" xmlns="http://www.w3.org/2000/svg">
<path id="warning" fill-rule="evenodd" clip-rule="evenodd" d="M1.5 7C1.5 10.0376 3.96243 12.5 7 12.5C10.0376 12.5 12.5 10.0376 12.5 7C12.5 3.96243 10.0376 1.5 7 1.5C3.96243 1.5 1.5 3.96243 1.5 7ZM6.11959e-07 7C2.73984e-07 10.866 3.13401 14 7 14C10.866 14 14 10.866 14 7C14 3.13401 10.866 -2.73984e-07 7 -6.11959e-07C3.13401 -9.49935e-07 9.49935e-07 3.13401 6.11959e-07 7ZM7 8.25C6.58579 8.25 6.25 7.91421 6.25 7.5L6.25 3.75C6.25 3.33579 6.58579 3 7 3C7.41421 3 7.75 3.33579 7.75 3.75L7.75 7.5C7.75 7.91421 7.41421 8.25 7 8.25ZM7 9C6.44772 9 6 9.44772 6 10C6 10.5523 6.44772 11 7 11C7.55228 11 8 10.5523 8 10C8 9.44772 7.55228 9 7 9Z" fill="#FF6F30"/>
</svg>
