<?xml version="1.0" encoding="UTF-8"?>
<svg width="20px" height="19px" viewBox="0 0 20 19" version="1.1" xmlns="http://www.w3.org/2000/svg" xmlns:xlink="http://www.w3.org/1999/xlink">
    <title>3976A016-93F3-4255-B11A-D0FDE30A63FD</title>
    <g id="Page-1" stroke="none" stroke-width="1" fill="none" fill-rule="evenodd">
        <g id="projects-screen-assets" transform="translate(-335.000000, -476.000000)" fill="#000000">
            <path d="M344.999937,492.210782 L339.875168,494.888571 C339.398887,495.137437 338.809799,494.95544 338.559403,494.482069 C338.459694,494.29357 338.425287,494.077659 338.461509,493.867762 L339.440252,488.196113 L335.294228,484.179429 C334.908908,483.80613 334.901024,483.193056 335.276617,482.810091 C335.426181,482.657592 335.622154,482.558349 335.834198,482.527725 L341.563863,481.700243 L344.126247,476.540006 C344.364388,476.060428 344.948603,475.863526 345.431128,476.100211 C345.623273,476.194461 345.778798,476.349036 345.873626,476.540006 L348.436011,481.700243 L354.165676,482.527725 C354.698174,482.604629 355.067124,483.09601 354.989747,483.625255 C354.958935,483.836003 354.859082,484.030779 354.705646,484.179429 L350.559621,488.196113 L351.538365,493.867762 C351.629326,494.394869 351.273134,494.895462 350.742787,494.985868 C350.531601,495.021868 350.314363,494.987671 350.124705,494.888571 L344.999937,492.210782 Z" id="favorite-icn_alt"></path>
        </g>
    </g>
</svg>